<svg xmlns="http://www.w3.org/2000/svg" xmlns:xlink="http://www.w3.org/1999/xlink" contentStyleType="text/css" data-diagram-type="ACTIVITY" height="888px" preserveAspectRatio="none" style="width:810px;height:888px;background:#FFFFFF;" version="1.1" viewBox="0 0 810 888" width="810px" zoomAndPan="magnify"><defs/><g><ellipse cx="403.8371" cy="20" fill="#222222" rx="10" ry="10" style="stroke:#222222;stroke-width:1;"/><rect fill="#F1F1F1" height="36.3441" rx="12.5" ry="12.5" style="stroke:#181818;stroke-width:0.5;" width="252.8017" x="277.4363" y="50"/><text fill="#000000" font-family="sans-serif" font-size="12" lengthAdjust="spacing" textLength="232.8017" x="287.4363" y="72.8281">Driver starts vehicle and EchoGhat device</text><rect fill="#F1F1F1" height="36.3441" rx="12.5" ry="12.5" style="stroke:#181818;stroke-width:0.5;" width="116.0127" x="345.8308" y="106.3441"/><text fill="#000000" font-family="sans-serif" font-size="12" lengthAdjust="spacing" textLength="96.0127" x="355.8308" y="129.1722">System initializes</text><rect fill="#555555" height="6" rx="2.5" ry="2.5" style="stroke:#555555;stroke-width:1;" width="788.1171" x="11" y="162.6882"/><rect fill="#F1F1F1" height="36.3441" rx="12.5" ry="12.5" style="stroke:#181818;stroke-width:0.5;" width="166.689" x="24.8628" y="245.8942"/><text fill="#000000" font-family="sans-serif" font-size="12" lengthAdjust="spacing" textLength="146.689" x="34.8628" y="268.7223">Establish LoRa connection</text><rect fill="#F1F1F1" height="36.3441" rx="12.5" ry="12.5" style="stroke:#181818;stroke-width:0.5;" width="131.2288" x="343.7637" y="188.6882"/><text fill="#000000" font-family="sans-serif" font-size="12" lengthAdjust="spacing" textLength="111.2288" x="353.7637" y="211.5163">Access GPS location</text><polygon fill="#F1F1F1" points="363.041,245.0323,455.7153,245.0323,467.7153,257.0323,455.7153,269.0323,363.041,269.0323,351.041,257.0323,363.041,245.0323" style="stroke:#181818;stroke-width:0.5;"/><text fill="#000000" font-family="sans-serif" font-size="11" lengthAdjust="spacing" textLength="92.6743" x="363.041" y="261.3003">GPS signal found?</text><text fill="#000000" font-family="sans-serif" font-size="11" lengthAdjust="spacing" textLength="17.0829" x="333.9581" y="253.8094">yes</text><text fill="#000000" font-family="sans-serif" font-size="11" lengthAdjust="spacing" textLength="13.4529" x="467.7153" y="253.8094">no</text><rect fill="#F1F1F1" height="36.3441" rx="12.5" ry="12.5" style="stroke:#181818;stroke-width:0.5;" width="183.0931" x="227.1091" y="279.0323"/><text fill="#000000" font-family="sans-serif" font-size="12" lengthAdjust="spacing" textLength="163.0931" x="237.1091" y="301.8604">Load map at current location</text><path d="M589.9991,279.0323 L589.9991,297.7384 L569.9991,301.7384 L589.9991,305.7384 L589.9991,324.4444 A0,0 0 0 0 589.9991,324.4444 L775.2542,324.4444 A0,0 0 0 0 775.2542,324.4444 L775.2542,289.0323 L765.2542,279.0323 L589.9991,279.0323 A0,0 0 0 0 589.9991,279.0323" fill="#FAFAFA" style="stroke:#181818;stroke-width:0.5;"/><path d="M765.2542,279.0323 L765.2542,289.0323 L775.2542,289.0323 L765.2542,279.0323" fill="#FAFAFA" style="stroke:#181818;stroke-width:0.5;"/><text fill="#000000" font-family="sans-serif" font-size="13" lengthAdjust="spacing" textLength="164.2552" x="595.9991" y="297.9294">System will continue trying</text><text fill="#000000" font-family="sans-serif" font-size="13" lengthAdjust="spacing" textLength="147.6932" x="595.9991" y="315.6354">until GPS signal is found</text><rect fill="#F1F1F1" height="36.3441" rx="12.5" ry="12.5" style="stroke:#181818;stroke-width:0.5;" width="139.7969" x="430.2022" y="283.5663"/><text fill="#000000" font-family="sans-serif" font-size="12" lengthAdjust="spacing" textLength="119.7969" x="440.2022" y="306.3944">Retry GPS acquisition</text><polygon fill="#F1F1F1" points="409.3781,330.4444,421.3781,342.4444,409.3781,354.4444,397.3781,342.4444,409.3781,330.4444" style="stroke:#181818;stroke-width:0.5;"/><rect fill="#555555" height="6" rx="2.5" ry="2.5" style="stroke:#555555;stroke-width:1;" width="788.1171" x="11" y="374.4444"/><rect fill="none" height="332.4444" style="stroke:#000000;stroke-width:1.5;" width="764.1171" x="23" y="390.4444"/><path d="M179.2714,390.4444 L179.2714,402.5123 L169.2714,412.5123 L23,412.5123" fill="none" style="stroke:#000000;stroke-width:1.5;"/><text fill="#000000" font-family="sans-serif" font-size="14" lengthAdjust="spacing" textLength="146.2714" x="26" y="406.4103">Continuous Operation</text><rect fill="#555555" height="6" rx="2.5" ry="2.5" style="stroke:#555555;stroke-width:1;" width="744.1171" x="33" y="429.5123"/><rect fill="#F1F1F1" height="52.6882" rx="12.5" ry="12.5" style="stroke:#181818;stroke-width:0.5;" width="170.1091" x="47" y="543.8564"/><text fill="#000000" font-family="sans-serif" font-size="12" lengthAdjust="spacing" textLength="150.1091" x="57" y="566.6845">Broadcast vehicle location,</text><text fill="#000000" font-family="sans-serif" font-size="12" lengthAdjust="spacing" textLength="111.2168" x="57" y="583.0286">speed, and heading</text><rect fill="#F1F1F1" height="52.6882" rx="12.5" ry="12.5" style="stroke:#181818;stroke-width:0.5;" width="119.0607" x="242.6663" y="543.8564"/><text fill="#000000" font-family="sans-serif" font-size="12" lengthAdjust="spacing" textLength="95.6047" x="252.6663" y="566.6845">Listen for nearby</text><text fill="#000000" font-family="sans-serif" font-size="12" lengthAdjust="spacing" textLength="99.0607" x="252.6663" y="583.0286">EchoGhat devices</text><rect fill="#F1F1F1" height="52.6882" rx="12.5" ry="12.5" style="stroke:#181818;stroke-width:0.5;" width="147.5609" x="517.0687" y="455.5123"/><text fill="#000000" font-family="sans-serif" font-size="12" lengthAdjust="spacing" textLength="127.5609" x="527.0687" y="478.3404">Process incoming data</text><text fill="#000000" font-family="sans-serif" font-size="12" lengthAdjust="spacing" textLength="114.5528" x="527.0687" y="494.6845">for hazard detection</text><polygon fill="#F1F1F1" points="545.8649,528.2005,635.8333,528.2005,647.8333,540.2005,635.8333,552.2005,545.8649,552.2005,533.8649,540.2005,545.8649,528.2005" style="stroke:#181818;stroke-width:0.5;"/><text fill="#000000" font-family="sans-serif" font-size="11" lengthAdjust="spacing" textLength="89.9684" x="545.8649" y="544.4685">Hazard detected?</text><text fill="#000000" font-family="sans-serif" font-size="11" lengthAdjust="spacing" textLength="17.0829" x="516.782" y="536.9775">yes</text><text fill="#000000" font-family="sans-serif" font-size="11" lengthAdjust="spacing" textLength="13.4529" x="647.8333" y="536.9775">no</text><rect fill="#F1F1F1" height="36.3441" rx="12.5" ry="12.5" style="stroke:#181818;stroke-width:0.5;" width="133.5808" x="430.7112" y="562.2005"/><text fill="#000000" font-family="sans-serif" font-size="12" lengthAdjust="spacing" textLength="113.5808" x="440.7112" y="585.0286">Generate voice alert</text><rect fill="#F1F1F1" height="36.3441" rx="12.5" ry="12.5" style="stroke:#181818;stroke-width:0.5;" width="195.5493" x="399.727" y="618.5446"/><text fill="#000000" font-family="sans-serif" font-size="12" lengthAdjust="spacing" textLength="175.5493" x="409.727" y="641.3727">Driver takes appropriate action</text><rect fill="#F1F1F1" height="36.3441" rx="12.5" ry="12.5" style="stroke:#181818;stroke-width:0.5;" width="137.8408" x="615.2762" y="562.2005"/><text fill="#000000" font-family="sans-serif" font-size="12" lengthAdjust="spacing" textLength="117.8408" x="625.2762" y="585.0286">Continue monitoring</text><polygon fill="#F1F1F1" points="590.8491,660.8888,602.8491,672.8888,590.8491,684.8888,578.8491,672.8888,590.8491,660.8888" style="stroke:#181818;stroke-width:0.5;"/><rect fill="#555555" height="6" rx="2.5" ry="2.5" style="stroke:#555555;stroke-width:1;" width="744.1171" x="33" y="704.8888"/><rect fill="#F1F1F1" height="36.3441" rx="12.5" ry="12.5" style="stroke:#181818;stroke-width:0.5;" width="168.5971" x="319.5386" y="742.8888"/><text fill="#000000" font-family="sans-serif" font-size="12" lengthAdjust="spacing" textLength="148.5971" x="329.5386" y="765.7168">Driver reaches destination</text><rect fill="#F1F1F1" height="36.3441" rx="12.5" ry="12.5" style="stroke:#181818;stroke-width:0.5;" width="120.2967" x="343.6888" y="799.2329"/><text fill="#000000" font-family="sans-serif" font-size="12" lengthAdjust="spacing" textLength="100.2967" x="353.6888" y="822.061">System shutdown</text><ellipse cx="403.8371" cy="866.577" fill="none" rx="11" ry="11" style="stroke:#222222;stroke-width:1;"/><ellipse cx="403.8371" cy="866.577" fill="#222222" rx="6" ry="6" style="stroke:#222222;stroke-width:1;"/><line style="stroke:#181818;stroke-width:1;" x1="403.8371" x2="403.8371" y1="30" y2="50"/><polygon fill="#181818" points="399.8371,40,403.8371,50,407.8371,40,403.8371,44" style="stroke:#181818;stroke-width:1;"/><line style="stroke:#181818;stroke-width:1;" x1="403.8371" x2="403.8371" y1="86.3441" y2="106.3441"/><polygon fill="#181818" points="399.8371,96.3441,403.8371,106.3441,407.8371,96.3441,403.8371,100.3441" style="stroke:#181818;stroke-width:1;"/><line style="stroke:#181818;stroke-width:1;" x1="351.041" x2="318.6556" y1="257.0323" y2="257.0323"/><line style="stroke:#181818;stroke-width:1;" x1="318.6556" x2="318.6556" y1="257.0323" y2="279.0323"/><polygon fill="#181818" points="314.6556,269.0323,318.6556,279.0323,322.6556,269.0323,318.6556,273.0323" style="stroke:#181818;stroke-width:1;"/><line style="stroke:#181818;stroke-width:1;" x1="467.7153" x2="500.1006" y1="257.0323" y2="257.0323"/><line style="stroke:#181818;stroke-width:1;" x1="500.1006" x2="500.1006" y1="257.0323" y2="283.5663"/><polygon fill="#181818" points="496.1006,273.5663,500.1006,283.5663,504.1006,273.5663,500.1006,277.5663" style="stroke:#181818;stroke-width:1;"/><line style="stroke:#181818;stroke-width:1;" x1="318.6556" x2="318.6556" y1="315.3765" y2="342.4444"/><line style="stroke:#181818;stroke-width:1;" x1="318.6556" x2="397.3781" y1="342.4444" y2="342.4444"/><polygon fill="#181818" points="387.3781,338.4444,397.3781,342.4444,387.3781,346.4444,391.3781,342.4444" style="stroke:#181818;stroke-width:1;"/><line style="stroke:#181818;stroke-width:1;" x1="500.1006" x2="500.1006" y1="319.9104" y2="342.4444"/><line style="stroke:#181818;stroke-width:1;" x1="500.1006" x2="421.3781" y1="342.4444" y2="342.4444"/><polygon fill="#181818" points="431.3781,338.4444,421.3781,342.4444,431.3781,346.4444,427.3781,342.4444" style="stroke:#181818;stroke-width:1;"/><line style="stroke:#181818;stroke-width:1;" x1="409.3781" x2="409.3781" y1="225.0323" y2="245.0323"/><polygon fill="#181818" points="405.3781,235.0323,409.3781,245.0323,413.3781,235.0323,409.3781,239.0323" style="stroke:#181818;stroke-width:1;"/><line style="stroke:#181818;stroke-width:1;" x1="108.2073" x2="108.2073" y1="168.6882" y2="245.8942"/><polygon fill="#181818" points="104.2073,235.8942,108.2073,245.8942,112.2073,235.8942,108.2073,239.8942" style="stroke:#181818;stroke-width:1;"/><line style="stroke:#181818;stroke-width:1;" x1="409.3781" x2="409.3781" y1="168.6882" y2="188.6882"/><polygon fill="#181818" points="405.3781,178.6882,409.3781,188.6882,413.3781,178.6882,409.3781,182.6882" style="stroke:#181818;stroke-width:1;"/><line style="stroke:#181818;stroke-width:1;" x1="108.2073" x2="108.2073" y1="282.2384" y2="374.4444"/><polygon fill="#181818" points="104.2073,364.4444,108.2073,374.4444,112.2073,364.4444,108.2073,368.4444" style="stroke:#181818;stroke-width:1;"/><line style="stroke:#181818;stroke-width:1;" x1="409.3781" x2="409.3781" y1="354.4444" y2="374.4444"/><polygon fill="#181818" points="405.3781,364.4444,409.3781,374.4444,413.3781,364.4444,409.3781,368.4444" style="stroke:#181818;stroke-width:1;"/><line style="stroke:#181818;stroke-width:1;" x1="403.8371" x2="403.8371" y1="142.6882" y2="162.6882"/><polygon fill="#181818" points="399.8371,152.6882,403.8371,162.6882,407.8371,152.6882,403.8371,156.6882" style="stroke:#181818;stroke-width:1;"/><line style="stroke:#181818;stroke-width:1;" x1="497.5016" x2="497.5016" y1="598.5446" y2="618.5446"/><polygon fill="#181818" points="493.5016,608.5446,497.5016,618.5446,501.5016,608.5446,497.5016,612.5446" style="stroke:#181818;stroke-width:1;"/><line style="stroke:#181818;stroke-width:1;" x1="533.8649" x2="497.5016" y1="540.2005" y2="540.2005"/><line style="stroke:#181818;stroke-width:1;" x1="497.5016" x2="497.5016" y1="540.2005" y2="562.2005"/><polygon fill="#181818" points="493.5016,552.2005,497.5016,562.2005,501.5016,552.2005,497.5016,556.2005" style="stroke:#181818;stroke-width:1;"/><line style="stroke:#181818;stroke-width:1;" x1="647.8333" x2="684.1966" y1="540.2005" y2="540.2005"/><line style="stroke:#181818;stroke-width:1;" x1="684.1966" x2="684.1966" y1="540.2005" y2="562.2005"/><polygon fill="#181818" points="680.1966,552.2005,684.1966,562.2005,688.1966,552.2005,684.1966,556.2005" style="stroke:#181818;stroke-width:1;"/><line style="stroke:#181818;stroke-width:1;" x1="497.5016" x2="497.5016" y1="654.8888" y2="672.8888"/><line style="stroke:#181818;stroke-width:1;" x1="497.5016" x2="578.8491" y1="672.8888" y2="672.8888"/><polygon fill="#181818" points="568.8491,668.8888,578.8491,672.8888,568.8491,676.8888,572.8491,672.8888" style="stroke:#181818;stroke-width:1;"/><line style="stroke:#181818;stroke-width:1;" x1="684.1966" x2="684.1966" y1="598.5446" y2="672.8888"/><line style="stroke:#181818;stroke-width:1;" x1="684.1966" x2="602.8491" y1="672.8888" y2="672.8888"/><polygon fill="#181818" points="612.8491,668.8888,602.8491,672.8888,612.8491,676.8888,608.8491,672.8888" style="stroke:#181818;stroke-width:1;"/><line style="stroke:#181818;stroke-width:1;" x1="590.8491" x2="590.8491" y1="508.2005" y2="528.2005"/><polygon fill="#181818" points="586.8491,518.2005,590.8491,528.2005,594.8491,518.2005,590.8491,522.2005" style="stroke:#181818;stroke-width:1;"/><line style="stroke:#181818;stroke-width:1;" x1="132.0545" x2="132.0545" y1="435.5123" y2="543.8564"/><polygon fill="#181818" points="128.0545,533.8564,132.0545,543.8564,136.0545,533.8564,132.0545,537.8564" style="stroke:#181818;stroke-width:1;"/><line style="stroke:#181818;stroke-width:1;" x1="302.1966" x2="302.1966" y1="435.5123" y2="543.8564"/><polygon fill="#181818" points="298.1966,533.8564,302.1966,543.8564,306.1966,533.8564,302.1966,537.8564" style="stroke:#181818;stroke-width:1;"/><line style="stroke:#181818;stroke-width:1;" x1="590.8491" x2="590.8491" y1="435.5123" y2="455.5123"/><polygon fill="#181818" points="586.8491,445.5123,590.8491,455.5123,594.8491,445.5123,590.8491,449.5123" style="stroke:#181818;stroke-width:1;"/><line style="stroke:#181818;stroke-width:1;" x1="132.0545" x2="132.0545" y1="596.5446" y2="704.8888"/><polygon fill="#181818" points="128.0545,694.8888,132.0545,704.8888,136.0545,694.8888,132.0545,698.8888" style="stroke:#181818;stroke-width:1;"/><line style="stroke:#181818;stroke-width:1;" x1="302.1966" x2="302.1966" y1="596.5446" y2="704.8888"/><polygon fill="#181818" points="298.1966,694.8888,302.1966,704.8888,306.1966,694.8888,302.1966,698.8888" style="stroke:#181818;stroke-width:1;"/><line style="stroke:#181818;stroke-width:1;" x1="590.8491" x2="590.8491" y1="684.8888" y2="704.8888"/><polygon fill="#181818" points="586.8491,694.8888,590.8491,704.8888,594.8491,694.8888,590.8491,698.8888" style="stroke:#181818;stroke-width:1;"/><line style="stroke:#181818;stroke-width:1;" x1="403.8371" x2="403.8371" y1="380.4444" y2="429.5123"/><polygon fill="#181818" points="399.8371,419.5123,403.8371,429.5123,407.8371,419.5123,403.8371,423.5123" style="stroke:#181818;stroke-width:1;"/><line style="stroke:#181818;stroke-width:1;" x1="403.8371" x2="403.8371" y1="710.8888" y2="742.8888"/><polygon fill="#181818" points="399.8371,732.8888,403.8371,742.8888,407.8371,732.8888,403.8371,736.8888" style="stroke:#181818;stroke-width:1;"/><line style="stroke:#181818;stroke-width:1;" x1="403.8371" x2="403.8371" y1="779.2329" y2="799.2329"/><polygon fill="#181818" points="399.8371,789.2329,403.8371,799.2329,407.8371,789.2329,403.8371,793.2329" style="stroke:#181818;stroke-width:1;"/><line style="stroke:#181818;stroke-width:1;" x1="403.8371" x2="403.8371" y1="835.577" y2="855.577"/><polygon fill="#181818" points="399.8371,845.577,403.8371,855.577,407.8371,845.577,403.8371,849.577" style="stroke:#181818;stroke-width:1;"/><!--SRC=[RLFBRXin3BphAuYS721VO1-ArWtIGu06oRKNMajRX7V5BScruHJzzqhxC9mYbnKa3idX3DUEd7jKx627yNXG6NApbLOKpecTWbtZdMI9IQKZS1rk8vQmaJFd0-onDGh17DN3-hloYHJ6cy694iUM07C3Zp79KqA7XauSQHFMRnTpwe0pEsFBxsIR4FQYnm2mVYmbTYrRWcTvHOYICqLdoPiH0dX0pXNuDKOoWwUNDsWbuWG1u3siwfln8MCB-phabtlmH1bM5xBxWYdPpu8DTDX38HO7LSh-eGoLuM2LPOQ_akjbx8Nnzy362muWYnCe7vAlOPxip6rRcJldeIfuANhzoaEvjt33ZMsYLzlbXlUXV67K8HInVUm1TzkfZWm6FtlIaU4T_2b9isI5tZSjuqGqlog_pF808y9wekPXz2CHDeNFPYvm5RIAmeL-hi-G2NLtcPB_Sz0-ItrH6UtW7AMhwz6WuvHUooLyHsrA0L_Ch97grO_R27rYLId-HBaEJd2IqX-m9VND4fmtp_581jZtAhro1UDDfuzsbgpjuavPTNRHMP75YV6S1FuRhjkjX36LBWrPIPvtPLbdIuENNwEyc4iV_W40]--></g></svg>