<svg xmlns="http://www.w3.org/2000/svg" xmlns:xlink="http://www.w3.org/1999/xlink" contentStyleType="text/css" data-diagram-type="DESCRIPTION" height="648px" preserveAspectRatio="none" style="width:884px;height:648px;background:#FFFFFF;" version="1.1" viewBox="0 0 884 648" width="884px" zoomAndPan="magnify"><defs/><g><!--cluster EchoGhat Road Safety System--><g class="cluster" data-entity="EchoGhat Road Safety System" data-source-line="6" data-uid="ent0002" id="cluster_EchoGhat Road Safety System"><path d="M8.5,6.602 L215.9572,6.602 A3.75,3.75 0 0 1 218.4572,9.102 L225.4572,31.6699 L874.5,31.6699 A2.5,2.5 0 0 1 877,34.1699 L877,535.872 A2.5,2.5 0 0 1 874.5,538.372 L8.5,538.372 A2.5,2.5 0 0 1 6,535.872 L6,9.102 A2.5,2.5 0 0 1 8.5,6.602" fill="none" style="stroke:#000000;stroke-width:1.5;"/><line style="stroke:#000000;stroke-width:1.5;" x1="6" x2="225.4572" y1="31.6699" y2="31.6699"/><text fill="#000000" font-family="sans-serif" font-size="14" font-weight="bold" lengthAdjust="spacing" textLength="206.4572" x="10" y="23.5679">EchoGhat Road Safety System</text></g><!--cluster webapp--><g class="cluster" data-entity="webapp" data-source-line="8" data-uid="ent0004" id="cluster_webapp"><rect fill="none" height="231.63" rx="2.5" ry="2.5" style="stroke:#181818;stroke-width:1;" width="388" x="148" y="274.742"/><text fill="#000000" font-family="sans-serif" font-size="14" font-weight="bold" lengthAdjust="spacing" textLength="164.8109" x="259.5946" y="291.7079">Next.js Web Application</text></g><!--entity gateway--><g class="entity" data-entity="gateway" data-source-line="7" data-uid="ent0003" id="entity_gateway"><rect fill="#F1F1F1" height="39.0679" rx="2.5" ry="2.5" style="stroke:#181818;stroke-width:0.5;" width="157.4655" x="560.27" y="443.302"/><text fill="#000000" font-family="sans-serif" font-size="14" lengthAdjust="spacing" textLength="137.4655" x="570.27" y="468.2679">ESP32-LoRa Gateway</text></g><!--entity capacitor--><g class="entity" data-entity="capacitor" data-source-line="13" data-uid="ent0008" id="entity_capacitor"><rect fill="#F1F1F1" height="39.0679" rx="2.5" ry="2.5" style="stroke:#181818;stroke-width:0.5;" width="192.5354" x="101.73" y="162.672"/><text fill="#000000" font-family="sans-serif" font-size="14" lengthAdjust="spacing" textLength="172.5354" x="111.73" y="187.6379">Capacitor Mobile Wrapper</text></g><!--entity android--><g class="entity" data-entity="android" data-source-line="14" data-uid="ent0009" id="entity_android"><rect fill="#F1F1F1" height="39.0679" rx="2.5" ry="2.5" style="stroke:#181818;stroke-width:0.5;" width="102.4877" x="21.76" y="320.742"/><text fill="#000000" font-family="sans-serif" font-size="14" lengthAdjust="spacing" textLength="82.4877" x="31.76" y="345.7079">Android App</text></g><!--entity localstorage--><g class="entity" data-entity="localstorage" data-source-line="16" data-uid="ent0010" id="entity_localstorage"><path d="M752.51,448.802 C752.51,438.802 807.0018,438.802 807.0018,438.802 C807.0018,438.802 861.4937,438.802 861.4937,448.802 L861.4937,476.8699 C861.4937,486.8699 807.0018,486.8699 807.0018,486.8699 C807.0018,486.8699 752.51,486.8699 752.51,476.8699 L752.51,448.802" fill="#F1F1F1" style="stroke:#181818;stroke-width:0.5;"/><path d="M752.51,448.802 C752.51,458.802 807.0018,458.802 807.0018,458.802 C807.0018,458.802 861.4937,458.802 861.4937,448.802" fill="none" style="stroke:#181818;stroke-width:0.5;"/><text fill="#000000" font-family="sans-serif" font-size="14" lengthAdjust="spacing" textLength="88.9837" x="762.51" y="477.7679">Local Storage</text></g><!--entity gps--><g class="entity" data-entity="gps" data-source-line="17" data-uid="ent0011" id="entity_gps"><rect fill="#F1F1F1" height="39.0679" rx="2.5" ry="2.5" style="stroke:#181818;stroke-width:0.5;" width="108.9697" x="143.52" y="44.602"/><text fill="#000000" font-family="sans-serif" font-size="14" lengthAdjust="spacing" textLength="88.9697" x="153.52" y="69.5679">GPS Satellites</text></g><!--entity map--><g class="entity" data-entity="map" data-source-line="9" data-uid="ent0005" id="entity_map"><rect fill="#F1F1F1" height="39.0679" rx="2.5" ry="2.5" style="stroke:#181818;stroke-width:0.5;" width="130.5436" x="171.73" y="320.742"/><text fill="#000000" font-family="sans-serif" font-size="14" lengthAdjust="spacing" textLength="110.5436" x="181.73" y="345.7079">Map Component</text></g><!--entity settings--><g class="entity" data-entity="settings" data-source-line="10" data-uid="ent0006" id="entity_settings"><rect fill="#F1F1F1" height="39.0679" rx="2.5" ry="2.5" style="stroke:#181818;stroke-width:0.5;" width="154.6515" x="337.67" y="320.742"/><text fill="#000000" font-family="sans-serif" font-size="14" lengthAdjust="spacing" textLength="134.6515" x="347.67" y="345.7079">Settings Component</text></g><!--entity alerts--><g class="entity" data-entity="alerts" data-source-line="11" data-uid="ent0007" id="entity_alerts"><rect fill="#F1F1F1" height="39.0679" rx="2.5" ry="2.5" style="stroke:#181818;stroke-width:0.5;" width="146.5875" x="171.71" y="443.302"/><text fill="#000000" font-family="sans-serif" font-size="14" lengthAdjust="spacing" textLength="126.5875" x="181.71" y="468.2679">Safety Alert System</text></g><!--entity vehicles--><g class="entity" data-entity="vehicles" data-source-line="20" data-uid="ent0012" id="entity_vehicles"><rect fill="#F1F1F1" height="39.0679" rx="2.5" ry="2.5" style="stroke:#181818;stroke-width:0.5;" width="182.4693" x="547.77" y="603.372"/><text fill="#000000" font-family="sans-serif" font-size="14" lengthAdjust="spacing" textLength="162.4693" x="557.77" y="628.3379">Other EchoGhat Vehicles</text></g><!--link gps to capacitor--><g class="link" data-entity-1="gps" data-entity-2="capacitor" data-source-line="22" data-uid="lnk13" id="link_gps_capacitor"><path d="M198,84.042 C198,105.622 198,134.722 198,156.302" fill="none" id="gps-to-capacitor" style="stroke:#181818;stroke-width:1;"/><polygon fill="#181818" points="198,162.302,202,153.302,198,157.302,194,153.302,198,162.302" style="stroke:#181818;stroke-width:1;"/><text fill="#000000" font-family="sans-serif" font-size="13" lengthAdjust="spacing" textLength="112.1511" x="199" y="128.569">GPS Location Data</text></g><!--link capacitor to webapp--><g class="link" data-entity-1="capacitor" data-entity-2="webapp" data-source-line="23" data-uid="lnk14" id="link_capacitor_webapp"><path d="M294.75,195.712 C374.13,207.902 478.12,228.982 508,258.742 C511.165,261.892 513.8567,265.46 516.1434,269.2985 C516.715,270.2581 517.2614,271.2346 517.7835,272.2258 C518.0445,272.7213 518.2995,273.2206 518.5486,273.7232 C518.6731,273.9745 516.1968,268.8189 516.3184,269.0718" fill="none" id="capacitor-to-webapp" style="stroke:#181818;stroke-width:1;"/><polygon fill="#181818" points="518.9177,274.4795,518.6239,264.6351,516.7516,269.9731,511.4136,268.1008,518.9177,274.4795" style="stroke:#181818;stroke-width:1;"/><text fill="#000000" font-family="sans-serif" font-size="13" lengthAdjust="spacing" textLength="126.8411" x="497.79" y="246.639">Native Device Access</text></g><!--link webapp to gateway--><g class="link" data-entity-1="webapp" data-entity-2="gateway" data-source-line="24" data-uid="lnk15" id="link_webapp_gateway"><path d="M536.0058,352.6019 C536.9098,353.8564 537.8785,355.1933 538.9057,356.6013 C540.96,359.4172 543.2481,362.5173 545.72,365.8107 C555.6075,378.9845 568.435,395.252 581,408.802 C592.13,420.812 601.0631,429.2512 612.2031,439.0412" fill="none" id="webapp-to-gateway" style="stroke:#181818;stroke-width:1;"/><polygon fill="#181818" points="616.71,443.002,612.5901,434.0562,612.9542,439.7014,607.3091,440.0655,616.71,443.002" style="stroke:#181818;stroke-width:1;"/><text fill="#000000" font-family="sans-serif" font-size="13" lengthAdjust="spacing" textLength="98.5921" x="582" y="404.699">WiFi Connection</text></g><!--link gateway to vehicles--><g class="link" data-entity-1="gateway" data-entity-2="vehicles" data-source-line="25" data-uid="lnk16" id="link_gateway_vehicles"><path d="M639,488.592 C639,519.012 639,566.772 639,597.182" fill="none" id="gateway-vehicles" style="stroke:#181818;stroke-width:1;"/><polygon fill="#181818" points="639,482.592,635,491.592,639,487.592,643,491.592,639,482.592" style="stroke:#181818;stroke-width:1;"/><polygon fill="#181818" points="639,603.182,643,594.182,639,598.182,635,594.182,639,603.182" style="stroke:#181818;stroke-width:1;"/><text fill="#000000" font-family="sans-serif" font-size="13" lengthAdjust="spacing" textLength="229.7232" x="640" y="569.269">LoRa Radio Communication (433MHz)</text></g><!--link webapp to localstorage--><g class="link" data-entity-1="webapp" data-entity-2="localstorage" data-source-line="26" data-uid="lnk17" id="link_webapp_localstorage"><path d="M542.0405,344.4205 C542.4935,344.5241 537.45,343.3742 537.9354,343.4859 C539.8771,343.933 542.0742,344.4454 544.5002,345.0214 C554.2041,347.3251 567.5706,350.6445 582.9063,354.8545 C613.5775,363.2745 652.125,375.257 685,389.802 C715.82,403.442 743.5462,419.8624 767.3562,435.2024" fill="none" id="webapp-localstorage" style="stroke:#181818;stroke-width:1;"/><polygon fill="#181818" points="536.1907,343.0861,544.0757,348.9876,541.0655,344.1981,545.855,341.188,536.1907,343.0861" style="stroke:#181818;stroke-width:1;"/><polygon fill="#181818" points="772.4,438.452,767.0006,430.2151,768.1968,435.744,762.6679,436.9402,772.4,438.452" style="stroke:#181818;stroke-width:1;"/><text fill="#000000" font-family="sans-serif" font-size="13" lengthAdjust="spacing" textLength="124.3841" x="720.8" y="404.699">Offline Data Storage</text></g><!--link capacitor to android--><g class="link" data-entity-1="capacitor" data-entity-2="android" data-source-line="27" data-uid="lnk18" id="link_capacitor_android"><path d="M182.92,202.032 C158.9,232.022 115.9408,285.6589 91.8808,315.6989" fill="none" id="capacitor-to-android" style="stroke:#181818;stroke-width:1;"/><polygon fill="#181818" points="88.13,320.382,96.8783,315.8579,91.2557,316.4794,90.6342,310.8568,88.13,320.382" style="stroke:#181818;stroke-width:1;"/><text fill="#000000" font-family="sans-serif" font-size="13" lengthAdjust="spacing" textLength="163.9041" x="158.57" y="246.639">Native Android Integration</text></g><!--SRC=[PP9DRzim38Rl-XL4JjqXEomx5SE08Dso0KrRnC1ofcN6LYjBWiGaouR-zr7-oDS07opo8VMIhzARSG4Zjb2YVgkZtxbguQsFS6WCaqgdlFPjy8uS5toq194qewlj9T9wvtKJVKl0SNUPIGrM_c1S3LkqYPGASXlM19Dlkl7B1XdM7YieS4jyXEAOcDe9_5LmlbVOucNsQVhermXBP3hWSGAOeEx_hzad-iqVNnDig8Hv2DPePEDTLt2W4aFekb_Lh330OZnsP8lX5Yg8MGP9DsGQml_X_KHpIv5FSmcFEP3fzslT2vJL61O3LhuqikXD5AqKko8z9gzhvgwAtbHvphvtVnP8lWePIqoowaUlqK8XvRBv3hGvalh0TSlbIo5cC5ahho3rQmv9lIjr0JrpGn5E3lwYncWxqFlXe9JKmNJwzImUxY6tptAo9V0W2jKvczd1eNju4cHFy41xemdcMbDAQiXcSF1Uo8tvRiGJv-HXIbSrPhvaR5GZNFTyrbWPdnriTsvu6N3tUJPR_VZpOMpV5LvkI8gVjrjh77MInqtUI1-MVzO-klFJCTMnkqlz0m00]--></g></svg>