<svg xmlns="http://www.w3.org/2000/svg" xmlns:xlink="http://www.w3.org/1999/xlink" contentStyleType="text/css" data-diagram-type="CLASS" height="957px" preserveAspectRatio="none" style="width:753px;height:957px;background:#FFFFFF;" version="1.1" viewBox="0 0 753 957" width="753px" zoomAndPan="magnify"><defs/><g><!--class User--><g class="entity" data-entity="User" data-source-line="6" data-uid="ent0002" id="entity_User"><rect fill="#F1F1F1" height="162.4075" rx="2.5" ry="2.5" style="stroke:#181818;stroke-width:0.5;" width="270.355" x="7" y="267.47"/><ellipse cx="122.6185" cy="283.47" fill="#C2C2C2" rx="11" ry="11" style="stroke:#181818;stroke-width:1;"/><path d="M122.7279,279.0013 Q121.806,279.0013 121.0717,279.3138 Q120.3529,279.6263 119.8529,280.22 Q119.3529,280.7981 119.0717,281.6731 Q118.806,282.5481 118.806,283.6419 Q118.806,285.0794 119.2435,286.1263 Q119.6967,287.1731 120.5404,287.72 Q121.3998,288.2669 122.7123,288.2669 Q123.4935,288.2669 124.181,288.1419 Q124.8842,288.0013 125.8842,287.6888 L125.8842,289.5638 Q125.0248,289.8919 124.2592,290.0169 Q123.5092,290.1419 122.4935,290.1419 Q120.5717,290.1419 119.2592,289.345 Q117.9623,288.5325 117.306,287.0638 Q116.6498,285.5794 116.6498,283.6106 Q116.6498,282.1888 117.0404,281.0169 Q117.4467,279.8294 118.2279,278.9544 Q119.0092,278.0794 120.1498,277.6106 Q121.2904,277.1263 122.7592,277.1263 Q123.7123,277.1263 124.6029,277.3294 Q125.5092,277.5169 126.4467,277.9856 L125.6185,279.7669 Q124.8373,279.3919 124.181,279.2044 Q123.5248,279.0013 122.7279,279.0013 Z " fill="#000000"/><text fill="#000000" font-family="sans-serif" font-size="14" lengthAdjust="spacing" textLength="30.6179" x="143.1185" y="288.902">User</text><line style="stroke:#181818;stroke-width:0.5;" x1="8" x2="276.355" y1="299.47" y2="299.47"/><text fill="#000000" font-family="sans-serif" font-size="14" lengthAdjust="spacing" textLength="92.7077" x="13" y="318.4359">-userId: string</text><text fill="#000000" font-family="sans-serif" font-size="14" lengthAdjust="spacing" textLength="116.8436" x="13" y="337.5039">-username: string</text><text fill="#000000" font-family="sans-serif" font-size="14" lengthAdjust="spacing" textLength="130.9135" x="13" y="356.5718">-preferences: object</text><line style="stroke:#181818;stroke-width:0.5;" x1="8" x2="276.355" y1="364.6738" y2="364.6738"/><text fill="#000000" font-family="sans-serif" font-size="14" lengthAdjust="spacing" textLength="127.7495" x="13" y="383.6397">+getUserId(): string</text><text fill="#000000" font-family="sans-serif" font-size="14" lengthAdjust="spacing" textLength="164.2334" x="13" y="402.7076">+getPreferences(): object</text><text fill="#000000" font-family="sans-serif" font-size="14" lengthAdjust="spacing" textLength="258.355" x="13" y="421.7755">+updatePreferences(prefs: object): void</text></g><!--class Vehicle--><g class="entity" data-entity="Vehicle" data-source-line="15" data-uid="ent0003" id="entity_Vehicle"><rect fill="#F1F1F1" height="181.4754" rx="2.5" ry="2.5" style="stroke:#181818;stroke-width:0.5;" width="169.6954" x="262.33" y="508.88"/><ellipse cx="319.5338" cy="524.88" fill="#C2C2C2" rx="11" ry="11" style="stroke:#181818;stroke-width:1;"/><path d="M319.6432,520.4113 Q318.7213,520.4113 317.9869,520.7238 Q317.2682,521.0363 316.7682,521.63 Q316.2682,522.2081 315.9869,523.0831 Q315.7213,523.9581 315.7213,525.0519 Q315.7213,526.4894 316.1588,527.5363 Q316.6119,528.5831 317.4557,529.13 Q318.315,529.6769 319.6275,529.6769 Q320.4088,529.6769 321.0963,529.5519 Q321.7994,529.4113 322.7994,529.0988 L322.7994,530.9738 Q321.94,531.3019 321.1744,531.4269 Q320.4244,531.5519 319.4088,531.5519 Q317.4869,531.5519 316.1744,530.755 Q314.8775,529.9425 314.2213,528.4738 Q313.565,526.9894 313.565,525.0206 Q313.565,523.5988 313.9557,522.4269 Q314.3619,521.2394 315.1432,520.3644 Q315.9244,519.4894 317.065,519.0206 Q318.2057,518.5363 319.6744,518.5363 Q320.6275,518.5363 321.5182,518.7394 Q322.4244,518.9269 323.3619,519.3956 L322.5338,521.1769 Q321.7525,520.8019 321.0963,520.6144 Q320.44,520.4113 319.6432,520.4113 Z " fill="#000000"/><text fill="#000000" font-family="sans-serif" font-size="14" lengthAdjust="spacing" textLength="46.7878" x="340.0338" y="530.312">Vehicle</text><line style="stroke:#181818;stroke-width:0.5;" x1="263.33" x2="431.0254" y1="540.88" y2="540.88"/><text fill="#000000" font-family="sans-serif" font-size="14" lengthAdjust="spacing" textLength="109.1716" x="268.33" y="559.8459">-vehicleId: string</text><text fill="#000000" font-family="sans-serif" font-size="14" lengthAdjust="spacing" textLength="118.8175" x="268.33" y="578.9139">-type: VehicleType</text><text fill="#000000" font-family="sans-serif" font-size="14" lengthAdjust="spacing" textLength="105.4756" x="268.33" y="597.9818">-ownerId: string</text><line style="stroke:#181818;stroke-width:0.5;" x1="263.33" x2="431.0254" y1="606.0838" y2="606.0838"/><text fill="#000000" font-family="sans-serif" font-size="14" lengthAdjust="spacing" textLength="143.9194" x="268.33" y="625.0497">+getVehicleId(): string</text><text fill="#000000" font-family="sans-serif" font-size="14" lengthAdjust="spacing" textLength="155.0074" x="268.33" y="644.1176">+getType(): VehicleType</text><text fill="#000000" font-family="sans-serif" font-size="14" lengthAdjust="spacing" textLength="157.6954" x="268.33" y="663.1855">+getLocation(): Location</text><text fill="#000000" font-family="sans-serif" font-size="14" lengthAdjust="spacing" textLength="148.2455" x="268.33" y="682.2534">+broadcastData(): void</text></g><!--class LoRaGateway--><g class="entity" data-entity="LoRaGateway" data-source-line="25" data-uid="ent0004" id="entity_LoRaGateway"><rect fill="#F1F1F1" height="162.4075" rx="2.5" ry="2.5" style="stroke:#181818;stroke-width:0.5;" width="229.3352" x="88.51" y="778.89"/><ellipse cx="154.2468" cy="794.89" fill="#C2C2C2" rx="11" ry="11" style="stroke:#181818;stroke-width:1;"/><path d="M154.3561,790.4213 Q153.4343,790.4213 152.6999,790.7338 Q151.9811,791.0463 151.4811,791.64 Q150.9811,792.2181 150.6999,793.0931 Q150.4343,793.9681 150.4343,795.0619 Q150.4343,796.4994 150.8718,797.5463 Q151.3249,798.5931 152.1686,799.14 Q153.028,799.6869 154.3405,799.6869 Q155.1218,799.6869 155.8093,799.5619 Q156.5124,799.4213 157.5124,799.1088 L157.5124,800.9838 Q156.653,801.3119 155.8874,801.4369 Q155.1374,801.5619 154.1218,801.5619 Q152.1999,801.5619 150.8874,800.765 Q149.5905,799.9525 148.9343,798.4838 Q148.278,796.9994 148.278,795.0306 Q148.278,793.6088 148.6686,792.4369 Q149.0749,791.2494 149.8561,790.3744 Q150.6374,789.4994 151.778,789.0306 Q152.9186,788.5463 154.3874,788.5463 Q155.3405,788.5463 156.2311,788.7494 Q157.1374,788.9369 158.0749,789.4056 L157.2468,791.1869 Q156.4655,790.8119 155.8093,790.6244 Q155.153,790.4213 154.3561,790.4213 Z " fill="#000000"/><text fill="#000000" font-family="sans-serif" font-size="14" lengthAdjust="spacing" textLength="89.3616" x="174.7468" y="800.322">LoRaGateway</text><line style="stroke:#181818;stroke-width:0.5;" x1="89.51" x2="316.8452" y1="810.89" y2="810.89"/><text fill="#000000" font-family="sans-serif" font-size="14" lengthAdjust="spacing" textLength="105.3776" x="94.51" y="829.8559">-deviceIP: string</text><text fill="#000000" font-family="sans-serif" font-size="14" lengthAdjust="spacing" textLength="105.4896" x="94.51" y="848.9239">-status: boolean</text><line style="stroke:#181818;stroke-width:0.5;" x1="89.51" x2="316.8452" y1="857.0258" y2="857.0258"/><text fill="#000000" font-family="sans-serif" font-size="14" lengthAdjust="spacing" textLength="129.5275" x="94.51" y="875.9918">+connect(): boolean</text><text fill="#000000" font-family="sans-serif" font-size="14" lengthAdjust="spacing" textLength="217.3352" x="94.51" y="895.0597">+sendData(data: object): boolean</text><text fill="#000000" font-family="sans-serif" font-size="14" lengthAdjust="spacing" textLength="142.0574" x="94.51" y="914.1276">+receiveData(): object</text><text fill="#000000" font-family="sans-serif" font-size="14" lengthAdjust="spacing" textLength="155.8334" x="94.51" y="933.1955">+checkStatus(): boolean</text></g><!--class MapController--><g class="entity" data-entity="MapController" data-source-line="34" data-uid="ent0005" id="entity_MapController"><rect fill="#F1F1F1" height="181.4754" rx="2.5" ry="2.5" style="stroke:#181818;stroke-width:0.5;" width="268.409" x="241.97" y="7"/><ellipse cx="324.2547" cy="23" fill="#C2C2C2" rx="11" ry="11" style="stroke:#181818;stroke-width:1;"/><path d="M324.3641,18.5313 Q323.4422,18.5313 322.7078,18.8438 Q321.9891,19.1563 321.4891,19.75 Q320.9891,20.3281 320.7078,21.2031 Q320.4422,22.0781 320.4422,23.1719 Q320.4422,24.6094 320.8797,25.6563 Q321.3328,26.7031 322.1766,27.25 Q323.0359,27.7969 324.3484,27.7969 Q325.1297,27.7969 325.8172,27.6719 Q326.5203,27.5313 327.5203,27.2188 L327.5203,29.0938 Q326.6609,29.4219 325.8953,29.5469 Q325.1453,29.6719 324.1297,29.6719 Q322.2078,29.6719 320.8953,28.875 Q319.5984,28.0625 318.9422,26.5938 Q318.2859,25.1094 318.2859,23.1406 Q318.2859,21.7188 318.6766,20.5469 Q319.0828,19.3594 319.8641,18.4844 Q320.6453,17.6094 321.7859,17.1406 Q322.9266,16.6563 324.3953,16.6563 Q325.3484,16.6563 326.2391,16.8594 Q327.1453,17.0469 328.0828,17.5156 L327.2547,19.2969 Q326.4734,18.9219 325.8172,18.7344 Q325.1609,18.5313 324.3641,18.5313 Z " fill="#000000"/><text fill="#000000" font-family="sans-serif" font-size="14" lengthAdjust="spacing" textLength="95.3396" x="344.7547" y="28.432">MapController</text><line style="stroke:#181818;stroke-width:0.5;" x1="242.97" x2="509.379" y1="39" y2="39"/><text fill="#000000" font-family="sans-serif" font-size="14" lengthAdjust="spacing" textLength="172.7733" x="247.97" y="57.9659">-currentLocation: Location</text><text fill="#000000" font-family="sans-serif" font-size="14" lengthAdjust="spacing" textLength="101.1916" x="247.97" y="77.0339">-zoom: number</text><text fill="#000000" font-family="sans-serif" font-size="14" lengthAdjust="spacing" textLength="157.2474" x="247.97" y="96.1018">-otherVehicles: Vehicle[]</text><line style="stroke:#181818;stroke-width:0.5;" x1="242.97" x2="509.379" y1="104.2038" y2="104.2038"/><text fill="#000000" font-family="sans-serif" font-size="14" lengthAdjust="spacing" textLength="101.6956" x="247.97" y="123.1697">+initMap(): void</text><text fill="#000000" font-family="sans-serif" font-size="14" lengthAdjust="spacing" textLength="236.8091" x="247.97" y="142.2376">+updateLocation(loc: Location): void</text><text fill="#000000" font-family="sans-serif" font-size="14" lengthAdjust="spacing" textLength="230.957" x="247.97" y="161.3055">+trackVehicle(vehicle: Vehicle): void</text><text fill="#000000" font-family="sans-serif" font-size="14" lengthAdjust="spacing" textLength="256.409" x="247.97" y="180.3734">+saveOfflineTiles(radius: number): void</text></g><!--class SafetyAlertSystem--><g class="entity" data-entity="SafetyAlertSystem" data-source-line="44" data-uid="ent0006" id="entity_SafetyAlertSystem"><rect fill="#F1F1F1" height="162.4075" rx="2.5" ry="2.5" style="stroke:#181818;stroke-width:0.5;" width="313.5588" x="433.4" y="267.47"/><ellipse cx="526.2756" cy="283.47" fill="#C2C2C2" rx="11" ry="11" style="stroke:#181818;stroke-width:1;"/><path d="M526.385,279.0013 Q525.4631,279.0013 524.7288,279.3138 Q524.01,279.6263 523.51,280.22 Q523.01,280.7981 522.7288,281.6731 Q522.4631,282.5481 522.4631,283.6419 Q522.4631,285.0794 522.9006,286.1263 Q523.3538,287.1731 524.1975,287.72 Q525.0569,288.2669 526.3694,288.2669 Q527.1506,288.2669 527.8381,288.1419 Q528.5413,288.0013 529.5413,287.6888 L529.5413,289.5638 Q528.6819,289.8919 527.9163,290.0169 Q527.1663,290.1419 526.1506,290.1419 Q524.2288,290.1419 522.9163,289.345 Q521.6194,288.5325 520.9631,287.0638 Q520.3069,285.5794 520.3069,283.6106 Q520.3069,282.1888 520.6975,281.0169 Q521.1038,279.8294 521.885,278.9544 Q522.6663,278.0794 523.8069,277.6106 Q524.9475,277.1263 526.4163,277.1263 Q527.3694,277.1263 528.26,277.3294 Q529.1663,277.5169 530.1038,277.9856 L529.2756,279.7669 Q528.4944,279.3919 527.8381,279.2044 Q527.1819,279.0013 526.385,279.0013 Z " fill="#000000"/><text fill="#000000" font-family="sans-serif" font-size="14" lengthAdjust="spacing" textLength="119.3076" x="546.7756" y="288.902">SafetyAlertSystem</text><line style="stroke:#181818;stroke-width:0.5;" x1="434.4" x2="745.9588" y1="299.47" y2="299.47"/><text fill="#000000" font-family="sans-serif" font-size="14" lengthAdjust="spacing" textLength="160.9434" x="439.4" y="318.4359">-alertThreshold: number</text><text fill="#000000" font-family="sans-serif" font-size="14" lengthAdjust="spacing" textLength="144.8994" x="439.4" y="337.5039">-alertVolume: number</text><text fill="#000000" font-family="sans-serif" font-size="14" lengthAdjust="spacing" textLength="150.6534" x="439.4" y="356.5718">-enabledAlerts: string[]</text><line style="stroke:#181818;stroke-width:0.5;" x1="434.4" x2="745.9588" y1="364.6738" y2="364.6738"/><text fill="#000000" font-family="sans-serif" font-size="14" lengthAdjust="spacing" textLength="279.9429" x="439.4" y="383.6397">+checkForHazards(vehicles: Vehicle[]): void</text><text fill="#000000" font-family="sans-serif" font-size="14" lengthAdjust="spacing" textLength="301.5588" x="439.4" y="402.7076">+generateAlert(type: string, data: object): void</text><text fill="#000000" font-family="sans-serif" font-size="14" lengthAdjust="spacing" textLength="249.773" x="439.4" y="421.7755">+playVoiceAlert(message: string): void</text></g><!--class VehicleType--><g class="entity" data-entity="VehicleType" data-source-line="53" data-uid="ent0007" id="entity_VehicleType"><rect fill="#F1F1F1" height="124.2717" rx="2.5" ry="2.5" style="stroke:#181818;stroke-width:0.5;" width="110.2177" x="545.07" y="35.6"/><ellipse cx="560.07" cy="51.6" fill="#ABABAB" rx="11" ry="11" style="stroke:#181818;stroke-width:1;"/><path d="M563.5388,58.1 L556.2263,58.1 L556.2263,45.4281 L563.5388,45.4281 L563.5388,47.3031 L558.2731,47.3031 L558.2731,50.5688 L563.2263,50.5688 L563.2263,52.4281 L558.2731,52.4281 L558.2731,56.225 L563.5388,56.225 L563.5388,58.1 Z " fill="#000000"/><text fill="#000000" font-family="sans-serif" font-size="14" lengthAdjust="spacing" textLength="78.2177" x="574.07" y="57.032">VehicleType</text><line style="stroke:#181818;stroke-width:0.5;" x1="546.07" x2="654.2877" y1="67.6" y2="67.6"/><text fill="#000000" font-family="sans-serif" font-size="14" lengthAdjust="spacing" textLength="26.5019" x="551.07" y="86.5659">CAR</text><text fill="#000000" font-family="sans-serif" font-size="14" lengthAdjust="spacing" textLength="44.2398" x="551.07" y="105.6339">TRUCK</text><text fill="#000000" font-family="sans-serif" font-size="14" lengthAdjust="spacing" textLength="27.0199" x="551.07" y="124.7018">BUS</text><text fill="#000000" font-family="sans-serif" font-size="14" lengthAdjust="spacing" textLength="30.2959" x="551.07" y="143.7697">BIKE</text><line style="stroke:#181818;stroke-width:0.5;" x1="546.07" x2="654.2877" y1="151.8717" y2="151.8717"/></g><!--class Location--><g class="entity" data-entity="Location" data-source-line="60" data-uid="ent0008" id="entity_Location"><rect fill="#F1F1F1" height="181.4754" rx="2.5" ry="2.5" style="stroke:#181818;stroke-width:0.5;" width="278.909" x="352.72" y="769.35"/><ellipse cx="459.8406" cy="785.35" fill="#C2C2C2" rx="11" ry="11" style="stroke:#181818;stroke-width:1;"/><path d="M459.95,780.8813 Q459.0281,780.8813 458.2937,781.1938 Q457.575,781.5063 457.075,782.1 Q456.575,782.6781 456.2937,783.5531 Q456.0281,784.4281 456.0281,785.5219 Q456.0281,786.9594 456.4656,788.0063 Q456.9187,789.0531 457.7625,789.6 Q458.6218,790.1469 459.9343,790.1469 Q460.7156,790.1469 461.4031,790.0219 Q462.1062,789.8813 463.1062,789.5688 L463.1062,791.4438 Q462.2468,791.7719 461.4812,791.8969 Q460.7312,792.0219 459.7156,792.0219 Q457.7937,792.0219 456.4812,791.225 Q455.1843,790.4125 454.5281,788.9438 Q453.8718,787.4594 453.8718,785.4906 Q453.8718,784.0688 454.2625,782.8969 Q454.6687,781.7094 455.45,780.8344 Q456.2312,779.9594 457.3718,779.4906 Q458.5125,779.0063 459.9812,779.0063 Q460.9343,779.0063 461.825,779.2094 Q462.7312,779.3969 463.6687,779.8656 L462.8406,781.6469 Q462.0593,781.2719 461.4031,781.0844 Q460.7468,780.8813 459.95,780.8813 Z " fill="#000000"/><text fill="#000000" font-family="sans-serif" font-size="14" lengthAdjust="spacing" textLength="56.1678" x="480.3406" y="790.782">Location</text><line style="stroke:#181818;stroke-width:0.5;" x1="353.72" x2="630.629" y1="801.35" y2="801.35"/><text fill="#000000" font-family="sans-serif" font-size="14" lengthAdjust="spacing" textLength="92.0497" x="358.72" y="820.3159">-latitude: float</text><text fill="#000000" font-family="sans-serif" font-size="14" lengthAdjust="spacing" textLength="104.8736" x="358.72" y="839.3839">-longitude: float</text><text fill="#000000" font-family="sans-serif" font-size="14" lengthAdjust="spacing" textLength="99.1476" x="358.72" y="858.4518">-accuracy: float</text><text fill="#000000" font-family="sans-serif" font-size="14" lengthAdjust="spacing" textLength="95.5916" x="358.72" y="877.5197">-heading: float</text><text fill="#000000" font-family="sans-serif" font-size="14" lengthAdjust="spacing" textLength="81.4237" x="358.72" y="896.5876">-speed: float</text><line style="stroke:#181818;stroke-width:0.5;" x1="353.72" x2="630.629" y1="904.6896" y2="904.6896"/><text fill="#000000" font-family="sans-serif" font-size="14" lengthAdjust="spacing" textLength="266.909" x="358.72" y="923.6555">+calculateDistanceTo(loc: Location): float</text><text fill="#000000" font-family="sans-serif" font-size="14" lengthAdjust="spacing" textLength="229.3891" x="358.72" y="942.7234">+getHeadingTo(loc: Location): float</text></g><!--reverse link User to Vehicle--><g class="link" data-entity-1="User" data-entity-2="Vehicle" data-source-line="70" data-uid="lnk9" id="link_User_Vehicle"><path codeLine="70" d="M216.0789,439.4228 C236.6689,464.4228 251.87,482.88 272.96,508.49" fill="none" id="User-backto-Vehicle" style="stroke:#181818;stroke-width:1;"/><polygon fill="#181818" points="208.45,430.16,209.1768,437.3344,216.0789,439.4228,215.3521,432.2485,208.45,430.16" style="stroke:#181818;stroke-width:1;"/><text fill="#000000" font-family="sans-serif" font-size="13" lengthAdjust="spacing" textLength="32.344" x="245.68" y="474.777">owns</text><text fill="#000000" font-family="sans-serif" font-size="13" lengthAdjust="spacing" textLength="7.436" x="206.8632" y="451.8205">1</text><text fill="#000000" font-family="sans-serif" font-size="13" lengthAdjust="spacing" textLength="21.567" x="244.9678" y="497.1658">0..*</text></g><!--link Vehicle to LoRaGateway--><g class="link" data-entity-1="Vehicle" data-entity-2="LoRaGateway" data-source-line="71" data-uid="lnk10" id="link_Vehicle_LoRaGateway"><path codeLine="71" d="M297.02,690.66 C281.11,719.21 263.63,750.59 248.11,778.44" fill="none" id="Vehicle-LoRaGateway" style="stroke:#181818;stroke-width:1;"/><text fill="#000000" font-family="sans-serif" font-size="13" lengthAdjust="spacing" textLength="27.82" x="280.5" y="735.247">uses</text><text fill="#000000" font-family="sans-serif" font-size="13" lengthAdjust="spacing" textLength="7.436" x="285.9285" y="712.2052">1</text><text fill="#000000" font-family="sans-serif" font-size="13" lengthAdjust="spacing" textLength="7.436" x="244.9496" y="767.0585">1</text></g><!--link MapController to SafetyAlertSystem--><g class="link" data-entity-1="MapController" data-entity-2="SafetyAlertSystem" data-source-line="72" data-uid="lnk11" id="link_MapController_SafetyAlertSystem"><path codeLine="72" d="M453.74,188.96 C475.75,214.56 499.56,242.26 521.03,267.24" fill="none" id="MapController-SafetyAlertSystem" style="stroke:#181818;stroke-width:1;"/><text fill="#000000" font-family="sans-serif" font-size="13" lengthAdjust="spacing" textLength="48.334" x="490.59" y="233.367">triggers</text><text fill="#000000" font-family="sans-serif" font-size="13" lengthAdjust="spacing" textLength="7.436" x="452.4273" y="210.519">1</text><text fill="#000000" font-family="sans-serif" font-size="13" lengthAdjust="spacing" textLength="7.436" x="507.1264" y="255.5988">1</text></g><!--link MapController to Vehicle--><g class="link" data-entity-1="MapController" data-entity-2="Vehicle" data-source-line="73" data-uid="lnk12" id="link_MapController_Vehicle"><path codeLine="73" d="M370.12,188.92 C368.46,214.32 366.7,241.98 365.18,267.47 C360.3,349.08 355.29,442.04 351.8,508.65" fill="none" id="MapController-Vehicle" style="stroke:#181818;stroke-width:1;"/><text fill="#000000" font-family="sans-serif" font-size="13" lengthAdjust="spacing" textLength="49.075" x="366.18" y="354.077">displays</text></g><!--link SafetyAlertSystem to Vehicle--><g class="link" data-entity-1="SafetyAlertSystem" data-entity-2="Vehicle" data-source-line="74" data-uid="lnk13" id="link_SafetyAlertSystem_Vehicle"><path codeLine="74" d="M511.62,430.16 C486.24,456.15 458,485.09 432.18,511.54" fill="none" id="SafetyAlertSystem-Vehicle" style="stroke:#181818;stroke-width:1;"/><text fill="#000000" font-family="sans-serif" font-size="13" lengthAdjust="spacing" textLength="55.5621" x="476.96" y="474.777">monitors</text></g><!--link Vehicle to Location--><g class="link" data-entity-1="Vehicle" data-entity-2="Location" data-source-line="75" data-uid="lnk14" id="link_Vehicle_Location"><path codeLine="75" d="M397.69,690.66 C411.91,716.01 427.38,743.58 441.6,768.94" fill="none" id="Vehicle-Location" style="stroke:#181818;stroke-width:1;"/><text fill="#000000" font-family="sans-serif" font-size="13" lengthAdjust="spacing" textLength="21.554" x="425.03" y="735.247">has</text></g><!--SRC=[TLHDRzim3BtxLmWvPUrITDVSkdHRWtPOqNnSXXqOYR6roA8XoGdIOVzzb1tRIe9TR8aVJu-FbFnEsmeSb683SfSxggsQaI4d3eKEcFdUNv8bMJWgKGHNfnvVWAA3jhdOWl6fHnhm_Y44fpTrmBaakz3lAEwphF68bKSd_cH2J6fUpTLKU8wrUMUnK69ggnnkqQ6LwAU2DhzH1ZRVvXXMJVxuGn8TpQz3GlGDANMb863gZjWzAiVkIQliRyTqZOMM1bko-tPppZSSA-PwYblo9XhfO2_gYgpMNVuLtvWNZUSmqVD24e8c6xtTEhesZa19yE4H0eolUB_G6tpZIWzmRBaht6k9yzUKkWyGQgvzGsGG6bXkbMKT8c1YzMXLSmwB1ubMIOX3YNgF7Pj1SLcWt2sQarBKdkbtg6PaWoDZkg6GjUFczAMV5Jvv9ogdmjRb1bqZTIZGdNJplO8_VyMpjTM1yNjv-W7eLJKa1_WaB3Y-5YUiyQdlFNWIvs6FFxPReoqkDHCOEr0wQjeIlEhB0hOOZWzSQbWSVS2ohHYYOLauz0KPbPRNUDPawdWZ1ZDQs1XK3P3lUjeMtGZ-bTmJl8DJlcEVQfCKa2DFAYlI88tROMxHFegBRdSfbO7ZcdYQsfmIlOUyJqjAHkQRZdHJw-pXZR_BjzNicV-VLuludJz_IMUtRKShZU5rg1NZRmr1Q4nayqiRI9uQaCV4L23tmkQ9nLU8QjZVIZ2ovWFmKVDTuETWILSJqGVpPNng4VyRnIKqJzleqqZSJ2PYT7ztTpFg7n7Myc1zrcrZL0pYNtfTfuAVG9-Ttuiazdg4flmowpn7Tvd56SFPIllOEPzT0vp5yOEl0xc19tlxban50Jxx1m00]--></g></svg>