<svg xmlns="http://www.w3.org/2000/svg" xmlns:xlink="http://www.w3.org/1999/xlink" contentStyleType="text/css" data-diagram-type="DESCRIPTION" height="1036px" preserveAspectRatio="none" style="width:896px;height:1036px;background:#FFFFFF;" version="1.1" viewBox="0 0 896 1036" width="896px" zoomAndPan="magnify"><defs/><g><!--entity Driver--><g class="entity" data-entity="Driver" data-source-line="5" data-uid="ent0002" id="entity_Driver"><ellipse cx="676.6919" cy="14" fill="#F1F1F1" rx="8" ry="8" style="stroke:#181818;stroke-width:0.5;"/><path d="M676.6919,22 L676.6919,49 M663.6919,30 L689.6919,30 M676.6919,49 L663.6919,64 M676.6919,49 L689.6919,64" fill="none" style="stroke:#181818;stroke-width:0.5;"/><text fill="#000000" font-family="sans-serif" font-size="14" lengthAdjust="spacing" textLength="40.4038" x="656.49" y="80.4659">Driver</text></g><!--entity Vehicles--><g class="entity" data-entity="Vehicles" data-source-line="6" data-uid="ent0003" id="entity_Vehicles"><ellipse cx="390.6958" cy="647.54" fill="#F1F1F1" rx="8" ry="8" style="stroke:#181818;stroke-width:0.5;"/><path d="M390.6958,655.54 L390.6958,682.54 M377.6958,663.54 L403.6958,663.54 M390.6958,682.54 L377.6958,697.54 M390.6958,682.54 L403.6958,697.54" fill="none" style="stroke:#181818;stroke-width:0.5;"/><text fill="#000000" font-family="sans-serif" font-size="14" lengthAdjust="spacing" textLength="95.4516" x="342.97" y="714.0059">Other Vehicles</text></g><!--entity GPS--><g class="entity" data-entity="GPS" data-source-line="8" data-uid="ent0004" id="entity_GPS"><rect fill="#F1F1F1" height="77.2038" rx="2.5" ry="2.5" style="stroke:#181818;stroke-width:0.5;" width="106.1557" x="510.62" y="163.57"/><text fill="#000000" font-family="sans-serif" font-size="14" lengthAdjust="spacing" textLength="19.7679" x="520.62" y="188.5359">1.1</text><text fill="#000000" font-family="sans-serif" font-size="14" lengthAdjust="spacing" textLength="86.1557" x="520.62" y="207.6039">GPS Location</text><text fill="#000000" font-family="sans-serif" font-size="14" lengthAdjust="spacing" textLength="56.4898" x="520.62" y="226.6718">Tracking</text></g><!--entity LORA--><g class="entity" data-entity="LORA" data-source-line="9" data-uid="ent0005" id="entity_LORA"><rect fill="#F1F1F1" height="77.2038" rx="2.5" ry="2.5" style="stroke:#181818;stroke-width:0.5;" width="124.7756" x="254.31" y="464.84"/><text fill="#000000" font-family="sans-serif" font-size="14" lengthAdjust="spacing" textLength="19.7679" x="264.31" y="489.8059">1.2</text><text fill="#000000" font-family="sans-serif" font-size="14" lengthAdjust="spacing" textLength="32.3679" x="264.31" y="508.8739">LoRa</text><text fill="#000000" font-family="sans-serif" font-size="14" lengthAdjust="spacing" textLength="104.7756" x="264.31" y="527.9418">Communication</text></g><!--entity HAZARD--><g class="entity" data-entity="HAZARD" data-source-line="10" data-uid="ent0006" id="entity_HAZARD"><rect fill="#F1F1F1" height="77.2038" rx="2.5" ry="2.5" style="stroke:#181818;stroke-width:0.5;" width="83.5737" x="144.91" y="797.11"/><text fill="#000000" font-family="sans-serif" font-size="14" lengthAdjust="spacing" textLength="19.7679" x="154.91" y="822.0759">1.3</text><text fill="#000000" font-family="sans-serif" font-size="14" lengthAdjust="spacing" textLength="47.0538" x="154.91" y="841.1439">Hazard</text><text fill="#000000" font-family="sans-serif" font-size="14" lengthAdjust="spacing" textLength="63.5737" x="154.91" y="860.2118">Detection</text></g><!--entity ALERT--><g class="entity" data-entity="ALERT" data-source-line="11" data-uid="ent0007" id="entity_ALERT"><rect fill="#F1F1F1" height="77.2038" rx="2.5" ry="2.5" style="stroke:#181818;stroke-width:0.5;" width="94.0597" x="444.67" y="953.32"/><text fill="#000000" font-family="sans-serif" font-size="14" lengthAdjust="spacing" textLength="19.7679" x="454.67" y="978.2859">1.4</text><text fill="#000000" font-family="sans-serif" font-size="14" lengthAdjust="spacing" textLength="31.2899" x="454.67" y="997.3539">Alert</text><text fill="#000000" font-family="sans-serif" font-size="14" lengthAdjust="spacing" textLength="74.0597" x="454.67" y="1016.4218">Generation</text></g><!--entity MAP--><g class="entity" data-entity="MAP" data-source-line="12" data-uid="ent0008" id="entity_MAP"><rect fill="#F1F1F1" height="77.2038" rx="2.5" ry="2.5" style="stroke:#181818;stroke-width:0.5;" width="102.6697" x="501.36" y="797.11"/><text fill="#000000" font-family="sans-serif" font-size="14" lengthAdjust="spacing" textLength="19.7679" x="511.36" y="822.0759">1.5</text><text fill="#000000" font-family="sans-serif" font-size="14" lengthAdjust="spacing" textLength="29.1619" x="511.36" y="841.1439">Map</text><text fill="#000000" font-family="sans-serif" font-size="14" lengthAdjust="spacing" textLength="82.6697" x="511.36" y="860.2118">Visualization</text></g><!--entity D1--><g class="entity" data-entity="D1" data-source-line="14" data-uid="ent0009" id="entity_D1"><path d="M349.18,347.77 C349.18,337.77 412.6948,337.77 412.6948,337.77 C412.6948,337.77 476.2096,337.77 476.2096,347.77 L476.2096,375.8379 C476.2096,385.8379 412.6948,385.8379 412.6948,385.8379 C412.6948,385.8379 349.18,385.8379 349.18,375.8379 L349.18,347.77" fill="#F1F1F1" style="stroke:#181818;stroke-width:0.5;"/><path d="M349.18,347.77 C349.18,357.77 412.6948,357.77 412.6948,357.77 C412.6948,357.77 476.2096,357.77 476.2096,347.77" fill="none" style="stroke:#181818;stroke-width:0.5;"/><text fill="#000000" font-family="sans-serif" font-size="14" lengthAdjust="spacing" textLength="107.0296" x="359.18" y="376.7359">D1: Vehicle Data</text></g><!--entity D2--><g class="entity" data-entity="D2" data-source-line="15" data-uid="ent0010" id="entity_D2"><path d="M111.36,664.54 C111.36,654.54 186.6977,654.54 186.6977,654.54 C186.6977,654.54 262.0355,654.54 262.0355,664.54 L262.0355,692.6079 C262.0355,702.6079 186.6977,702.6079 186.6977,702.6079 C186.6977,702.6079 111.36,702.6079 111.36,692.6079 L111.36,664.54" fill="#F1F1F1" style="stroke:#181818;stroke-width:0.5;"/><path d="M111.36,664.54 C111.36,674.54 186.6977,674.54 186.6977,674.54 C186.6977,674.54 262.0355,674.54 262.0355,664.54" fill="none" style="stroke:#181818;stroke-width:0.5;"/><text fill="#000000" font-family="sans-serif" font-size="14" lengthAdjust="spacing" textLength="130.6755" x="121.36" y="693.5059">D2: Nearby Vehicles</text></g><!--link Driver to GPS--><g class="link" data-entity-1="Driver" data-entity-2="GPS" data-source-line="17" data-uid="lnk11" id="link_Driver_GPS"><path d="M656.29,55.58 C634.84,66.69 601.76,87.08 583.69,114.57 C574.29,128.88 570.264,141.1512 567.604,157.1512" fill="none" id="Driver-to-GPS" style="stroke:#181818;stroke-width:1;"/><polygon fill="#181818" points="566.62,163.07,572.0418,154.8479,567.44,158.1377,564.1501,153.5359,566.62,163.07" style="stroke:#181818;stroke-width:1;"/><text fill="#000000" font-family="sans-serif" font-size="13" lengthAdjust="spacing" textLength="65.0131" x="584.69" y="129.467">GPS Signal</text></g><!--link GPS to D1--><g class="link" data-entity-1="GPS" data-entity-2="D1" data-source-line="18" data-uid="lnk12" id="link_GPS_D1"><path d="M527.53,240.93 C498.73,270.99 463.5005,307.7672 439.1405,333.1972" fill="none" id="GPS-to-D1" style="stroke:#181818;stroke-width:1;"/><polygon fill="#181818" points="434.99,337.53,444.1043,333.7978,438.4488,333.9193,438.3272,328.2638,434.99,337.53" style="stroke:#181818;stroke-width:1;"/><text fill="#000000" font-family="sans-serif" font-size="13" lengthAdjust="spacing" textLength="88.5171" x="502.127" y="285.667">Store Position,</text><text fill="#000000" font-family="sans-serif" font-size="13" lengthAdjust="spacing" textLength="96.2911" x="498.24" y="303.373">Speed, Heading</text></g><!--link D1 to LORA--><g class="link" data-entity-1="D1" data-entity-2="LORA" data-source-line="19" data-uid="lnk13" id="link_D1_LORA"><path d="M396.63,386.18 C381.95,407.53 363.3809,434.5469 346.1809,459.5469" fill="none" id="D1-to-LORA" style="stroke:#181818;stroke-width:1;"/><polygon fill="#181818" points="342.78,464.49,351.1767,459.3426,345.614,460.3708,344.5859,454.8081,342.78,464.49" style="stroke:#181818;stroke-width:1;"/><text fill="#000000" font-family="sans-serif" font-size="13" lengthAdjust="spacing" textLength="75.595" x="377.12" y="430.737">Vehicle Data</text></g><!--link LORA to Vehicles--><g class="link" data-entity-1="LORA" data-entity-2="Vehicles" data-source-line="20" data-uid="lnk14" id="link_LORA_Vehicles"><path d="M298.69,542.41 C291.58,563.03 287.29,588.45 297.69,609.04 C307.37,628.2 320.1462,640.0916 337.6262,651.2016" fill="none" id="LORA-to-Vehicles" style="stroke:#181818;stroke-width:1;"/><polygon fill="#181818" points="342.69,654.42,337.24,646.2165,338.4702,651.738,332.9487,652.9682,342.69,654.42" style="stroke:#181818;stroke-width:1;"/><text fill="#000000" font-family="sans-serif" font-size="13" lengthAdjust="spacing" textLength="93.5741" x="298.69" y="595.937">Broadcast Data</text></g><!--link Vehicles to LORA--><g class="link" data-entity-1="Vehicles" data-entity-2="LORA" data-source-line="21" data-uid="lnk15" id="link_Vehicles_LORA"><path d="M401.52,638.55 C405.18,617.89 406.24,592.6 396.69,572.04 C391.57,560.99 387.9572,555.2668 379.0572,546.6768" fill="none" id="Vehicles-to-LORA" style="stroke:#181818;stroke-width:1;"/><polygon fill="#181818" points="374.74,542.51,378.4379,551.6383,378.3376,545.9823,383.9936,545.8821,374.74,542.51" style="stroke:#181818;stroke-width:1;"/><text fill="#000000" font-family="sans-serif" font-size="13" lengthAdjust="spacing" textLength="75.595" x="405.14" y="595.937">Vehicle Data</text></g><!--link LORA to D2--><g class="link" data-entity-1="LORA" data-entity-2="D2" data-source-line="22" data-uid="lnk16" id="link_LORA_D2"><path d="M254.09,528.2 C234.34,538.72 214.39,553.09 201.69,572.04 C185.32,596.49 183.2455,625.2854 184.2155,648.1354" fill="none" id="LORA-to-D2" style="stroke:#181818;stroke-width:1;"/><polygon fill="#181818" points="184.47,654.13,188.0847,644.9684,184.2579,649.1345,180.0919,645.3077,184.47,654.13" style="stroke:#181818;stroke-width:1;"/><text fill="#000000" font-family="sans-serif" font-size="13" lengthAdjust="spacing" textLength="80.2751" x="202.69" y="586.937">Store Nearby</text><text fill="#000000" font-family="sans-serif" font-size="13" lengthAdjust="spacing" textLength="49.673" x="217.991" y="604.643">Vehicles</text></g><!--link D2 to HAZARD--><g class="link" data-entity-1="D2" data-entity-2="HAZARD" data-source-line="23" data-uid="lnk17" id="link_D2_HAZARD"><path d="M186.69,702.8 C186.69,727.65 186.69,761.46 186.69,790.85" fill="none" id="D2-to-HAZARD" style="stroke:#181818;stroke-width:1;"/><polygon fill="#181818" points="186.69,796.85,190.69,787.85,186.69,791.85,182.69,787.85,186.69,796.85" style="stroke:#181818;stroke-width:1;"/><text fill="#000000" font-family="sans-serif" font-size="13" lengthAdjust="spacing" textLength="137.1371" x="187.69" y="763.007">Vehicle Proximity Data</text></g><!--link D1 to HAZARD--><g class="link" data-entity-1="D1" data-entity-2="HAZARD" data-source-line="24" data-uid="lnk18" id="link_D1_HAZARD"><path d="M348.71,378.65 C263.36,403.62 115.62,461.11 51.69,572.04 C6,651.34 85.2703,743.6697 140.1203,794.7797" fill="none" id="D1-to-HAZARD" style="stroke:#181818;stroke-width:1;"/><polygon fill="#181818" points="144.51,798.87,140.6524,789.808,140.852,795.4614,135.1986,795.6609,144.51,798.87" style="stroke:#181818;stroke-width:1;"/><text fill="#000000" font-family="sans-serif" font-size="13" lengthAdjust="spacing" textLength="126.0221" x="52.69" y="595.937">Current Vehicle Data</text></g><!--link HAZARD to ALERT--><g class="link" data-entity-1="HAZARD" data-entity-2="ALERT" data-source-line="25" data-uid="lnk19" id="link_HAZARD_ALERT"><path d="M228.78,857.99 C285.24,886.54 379.8655,934.3828 438.9255,964.2428" fill="none" id="HAZARD-to-ALERT" style="stroke:#181818;stroke-width:1;"/><polygon fill="#181818" points="444.28,966.95,438.053,959.3195,439.8179,964.694,434.4434,966.4589,444.28,966.95" style="stroke:#181818;stroke-width:1;"/><text fill="#000000" font-family="sans-serif" font-size="13" lengthAdjust="spacing" textLength="120.6141" x="358.46" y="919.217">Hazard Information</text></g><!--link ALERT to Driver--><g class="link" data-entity-1="ALERT" data-entity-2="Driver" data-source-line="26" data-uid="lnk20" id="link_ALERT_Driver"><path d="M538.91,986.67 C619.67,976.53 775.69,943.17 775.69,836.71 C775.69,201.17 775.69,201.17 775.69,201.17 C775.69,143.34 730.6431,93.7833 701.6431,67.3333" fill="none" id="ALERT-to-Driver" style="stroke:#181818;stroke-width:1;"/><polygon fill="#181818" points="697.21,63.29,701.1641,72.3103,700.9042,66.6594,706.5551,66.3995,697.21,63.29" style="stroke:#181818;stroke-width:1;"/><text fill="#000000" font-family="sans-serif" font-size="13" lengthAdjust="spacing" textLength="112.1511" x="776.69" y="508.837">Voice/Visual Alerts</text></g><!--link D1 to MAP--><g class="link" data-entity-1="D1" data-entity-2="MAP" data-source-line="27" data-uid="lnk21" id="link_D1_MAP"><path d="M438.61,386.11 C446.78,394.72 455.12,405.02 460.69,415.84 C527.21,544.89 545.3722,714.3932 550.4422,790.6932" fill="none" id="D1-to-MAP" style="stroke:#181818;stroke-width:1;"/><polygon fill="#181818" points="550.84,796.68,554.2345,787.4346,550.5085,791.691,546.2521,787.965,550.84,796.68" style="stroke:#181818;stroke-width:1;"/><text fill="#000000" font-family="sans-serif" font-size="13" lengthAdjust="spacing" textLength="99.6841" x="525.9" y="595.937">Current Position</text></g><!--link D2 to MAP--><g class="link" data-entity-1="D2" data-entity-2="MAP" data-source-line="28" data-uid="lnk22" id="link_D2_MAP"><path d="M237.9,702.96 C277.53,720.91 333.87,746.09 383.69,767.11 C422.85,783.64 461.9356,799.2658 495.5056,812.4558" fill="none" id="D2-to-MAP" style="stroke:#181818;stroke-width:1;"/><polygon fill="#181818" points="501.09,814.65,494.1762,807.6358,496.4363,812.8215,491.2506,815.0817,501.09,814.65" style="stroke:#181818;stroke-width:1;"/><text fill="#000000" font-family="sans-serif" font-size="13" lengthAdjust="spacing" textLength="141.2711" x="384.69" y="763.007">Other Vehicle Positions</text></g><!--link MAP to Driver--><g class="link" data-entity-1="MAP" data-entity-2="Driver" data-source-line="29" data-uid="lnk23" id="link_MAP_Driver"><path d="M604.2,799.24 C638.27,771.21 676.69,728.71 676.69,679.58 C676.69,201.17 676.69,201.17 676.69,201.17 C676.69,161.58 676.69,122.3 676.69,90.93" fill="none" id="MAP-to-Driver" style="stroke:#181818;stroke-width:1;"/><polygon fill="#181818" points="676.69,84.93,672.69,93.93,676.69,89.93,680.69,93.93,676.69,84.93" style="stroke:#181818;stroke-width:1;"/><text fill="#000000" font-family="sans-serif" font-size="13" lengthAdjust="spacing" textLength="74.8021" x="677.69" y="430.737">Map Display</text></g><!--SRC=[XP91Rzim38Nl-XL2pkq6fzibXm5UD3G3qZL8YXu6NHYRZONQL40fwz9VFygAtVYqYs7fVIAV7XLU7Hs1eTDxg5uFx4zKBtthMRyrBg8AezvvybN3laCT-NIjX0Pg_-Ree5-W3QWKL54A67P_a2-BsMDiaFKpDgvgCSmqX76X56CLWGujwbdngR1qlzdfjQyWEa-MdbYiIVd-a4XJV6vfxRTWQUcxxaGkd-hPzUEsdC9tbbRm3bnRCXX56T1L-RlScYdynLBP8aVnWuJyKRTS_zW-JTclbXxWQEdPXHEqxlq3VYWtIjKGOGz1K5CiXejh8xizOufhOhxGln1uVvx6PUPAvKprxUst58HUzD-TEn2qAlqcmHIolvFGKMzySCd8ZQNT4R6-qIk4Mg9K0YKs9QIdXbI_byIXkm3VsKDTGOWP6PN_rZ3pqKo-aqGqZ5sqXEJehofisFzrdOldNEjYTSIM9sQaE6ruKHFOJqUuF6ZzaruyT_qyL9PwNpb8QUfTXP_ps7G_xZ1qbCbTjHko76ndTVAiHoQef4xwoElGneLZ2sVr3m00]--></g></svg>