<svg xmlns="http://www.w3.org/2000/svg" xmlns:xlink="http://www.w3.org/1999/xlink" contentStyleType="text/css" data-diagram-type="SEQUENCE" height="709px" preserveAspectRatio="none" style="width:595px;height:709px;background:#FFFFFF;" version="1.1" viewBox="0 0 595 709" width="595px" zoomAndPan="magnify"><defs/><g><g><title>Mobile App</title><rect fill="#FFFFFF" height="490.5902" style="stroke:#181818;stroke-width:1;" width="10" x="200.247" y="117.7739"/></g><g><title>LoRa Gateway</title><rect fill="#FFFFFF" height="458.8842" style="stroke:#181818;stroke-width:1;" width="10" x="370.6951" y="149.4799"/></g><rect fill="none" height="292.0602" style="stroke:#000000;stroke-width:1.5;" width="579.489" x="10" y="253.892"/><rect fill="none" height="51.412" style="stroke:#000000;stroke-width:1.5;" width="239.5989" x="20" y="487.5401"/><g><title>Driver</title><rect fill="#000000" fill-opacity="0.00000" height="542.2963" width="8" x="49.2019" y="84.0679"/><line style="stroke:#181818;stroke-width:0.5;stroke-dasharray:5.0,5.0;" x1="53" x2="53" y1="84.0679" y2="626.3642"/></g><g><title>Mobile App</title><rect fill="#000000" fill-opacity="0.00000" height="542.2963" width="8" x="201.247" y="84.0679"/><line style="stroke:#181818;stroke-width:0.5;stroke-dasharray:5.0,5.0;" x1="204.8951" x2="204.8951" y1="84.0679" y2="626.3642"/></g><g><title>LoRa Gateway</title><rect fill="#000000" fill-opacity="0.00000" height="542.2963" width="8" x="371.6951" y="84.0679"/><line style="stroke:#181818;stroke-width:0.5;stroke-dasharray:5.0,5.0;" x1="375.1943" x2="375.1943" y1="84.0679" y2="626.3642"/></g><g><title>Other Vehicles</title><rect fill="#000000" fill-opacity="0.00000" height="542.2963" width="8" x="520.7632" y="84.0679"/><line style="stroke:#181818;stroke-width:0.5;stroke-dasharray:5.0,5.0;" x1="524.0374" x2="524.0374" y1="84.0679" y2="626.3642"/></g><g class="participant participant-head" data-participant="Driver"><text fill="#000000" font-family="sans-serif" font-size="14" lengthAdjust="spacing" textLength="40.4038" x="30" y="79.9659">Driver</text><ellipse cx="53.2019" cy="13.5" fill="#E3E3E3" rx="8" ry="8" style="stroke:#181818;stroke-width:0.5;"/><path d="M53.2019,21.5 L53.2019,48.5 M40.2019,29.5 L66.2019,29.5 M53.2019,48.5 L40.2019,63.5 M53.2019,48.5 L66.2019,63.5" fill="none" style="stroke:#181818;stroke-width:0.5;"/></g><g class="participant participant-tail" data-participant="Driver"><text fill="#000000" font-family="sans-serif" font-size="14" lengthAdjust="spacing" textLength="40.4038" x="30" y="640.3301">Driver</text><ellipse cx="53.2019" cy="652.9321" fill="#E3E3E3" rx="8" ry="8" style="stroke:#181818;stroke-width:0.5;"/><path d="M53.2019,660.9321 L53.2019,687.9321 M40.2019,668.9321 L66.2019,668.9321 M53.2019,687.9321 L40.2019,702.9321 M53.2019,687.9321 L66.2019,702.9321" fill="none" style="stroke:#181818;stroke-width:0.5;"/></g><g class="participant participant-head" data-participant="App"><rect fill="#E3E3E3" height="33.0679" rx="2.5" ry="2.5" style="stroke:#181818;stroke-width:0.5;" width="88.7037" x="160.8951" y="50"/><text fill="#000000" font-family="sans-serif" font-size="14" lengthAdjust="spacing" textLength="74.7037" x="167.8951" y="71.9659">Mobile App</text></g><g class="participant participant-tail" data-participant="App"><rect fill="#E3E3E3" height="33.0679" rx="2.5" ry="2.5" style="stroke:#181818;stroke-width:0.5;" width="88.7037" x="160.8951" y="625.3642"/><text fill="#000000" font-family="sans-serif" font-size="14" lengthAdjust="spacing" textLength="74.7037" x="167.8951" y="647.3301">Mobile App</text></g><g class="participant participant-head" data-participant="Gateway"><rect fill="#E3E3E3" height="33.0679" rx="2.5" ry="2.5" style="stroke:#181818;stroke-width:0.5;" width="107.0016" x="322.1943" y="50"/><text fill="#000000" font-family="sans-serif" font-size="14" lengthAdjust="spacing" textLength="93.0016" x="329.1943" y="71.9659">LoRa Gateway</text></g><g class="participant participant-tail" data-participant="Gateway"><rect fill="#E3E3E3" height="33.0679" rx="2.5" ry="2.5" style="stroke:#181818;stroke-width:0.5;" width="107.0016" x="322.1943" y="625.3642"/><text fill="#000000" font-family="sans-serif" font-size="14" lengthAdjust="spacing" textLength="93.0016" x="329.1943" y="647.3301">LoRa Gateway</text></g><g class="participant participant-head" data-participant="Vehicles"><rect fill="#E3E3E3" height="33.0679" rx="2.5" ry="2.5" style="stroke:#181818;stroke-width:0.5;" width="109.4516" x="470.0374" y="50"/><text fill="#000000" font-family="sans-serif" font-size="14" lengthAdjust="spacing" textLength="95.4516" x="477.0374" y="71.9659">Other Vehicles</text></g><g class="participant participant-tail" data-participant="Vehicles"><rect fill="#E3E3E3" height="33.0679" rx="2.5" ry="2.5" style="stroke:#181818;stroke-width:0.5;" width="109.4516" x="470.0374" y="625.3642"/><text fill="#000000" font-family="sans-serif" font-size="14" lengthAdjust="spacing" textLength="95.4516" x="477.0374" y="647.3301">Other Vehicles</text></g><g><title>Mobile App</title><rect fill="#FFFFFF" height="490.5902" style="stroke:#181818;stroke-width:1;" width="10" x="200.247" y="117.7739"/></g><g><title>LoRa Gateway</title><rect fill="#FFFFFF" height="458.8842" style="stroke:#181818;stroke-width:1;" width="10" x="370.6951" y="149.4799"/></g><g class="message" data-participant-1="Driver" data-participant-2="App"><polygon fill="#181818" points="188.247,113.7739,198.247,117.7739,188.247,121.7739,192.247,117.7739" style="stroke:#181818;stroke-width:1;"/><line style="stroke:#181818;stroke-width:1;" x1="53.2019" x2="194.247" y1="117.7739" y2="117.7739"/><text fill="#000000" font-family="sans-serif" font-size="13" lengthAdjust="spacing" textLength="115.2971" x="60.2019" y="111.9649">Launch application</text></g><g class="message" data-participant-1="App" data-participant-2="Gateway"><polygon fill="#181818" points="358.6951,145.4799,368.6951,149.4799,358.6951,153.4799,362.6951,149.4799" style="stroke:#181818;stroke-width:1;"/><line style="stroke:#181818;stroke-width:1;" x1="210.247" x2="364.6951" y1="149.4799" y2="149.4799"/><text fill="#000000" font-family="sans-serif" font-size="13" lengthAdjust="spacing" textLength="50.414" x="217.247" y="143.6709">Connect</text></g><g class="message" data-participant-1="App" data-participant-2="App"><line style="stroke:#181818;stroke-width:1;" x1="210.247" x2="252.247" y1="181.186" y2="181.186"/><line style="stroke:#181818;stroke-width:1;" x1="252.247" x2="252.247" y1="181.186" y2="194.186"/><line style="stroke:#181818;stroke-width:1;" x1="211.247" x2="252.247" y1="194.186" y2="194.186"/><polygon fill="#181818" points="221.247,190.186,211.247,194.186,221.247,198.186,217.247,194.186" style="stroke:#181818;stroke-width:1;"/><text fill="#000000" font-family="sans-serif" font-size="13" lengthAdjust="spacing" textLength="132.4311" x="217.247" y="175.377">Initialize GPS tracking</text></g><g class="message" data-participant-1="App" data-participant-2="App"><line style="stroke:#181818;stroke-width:1;" x1="210.247" x2="252.247" y1="225.892" y2="225.892"/><line style="stroke:#181818;stroke-width:1;" x1="252.247" x2="252.247" y1="225.892" y2="238.892"/><line style="stroke:#181818;stroke-width:1;" x1="211.247" x2="252.247" y1="238.892" y2="238.892"/><polygon fill="#181818" points="221.247,234.892,211.247,238.892,221.247,242.892,217.247,238.892" style="stroke:#181818;stroke-width:1;"/><text fill="#000000" font-family="sans-serif" font-size="13" lengthAdjust="spacing" textLength="118.2871" x="217.247" y="220.083">Load map interface</text></g><path d="M10,253.892 L83.704,253.892 L83.704,263.598 L73.704,273.598 L10,273.598 L10,253.892" fill="#EEEEEE" style="stroke:#000000;stroke-width:1.5;"/><rect fill="none" height="292.0602" style="stroke:#000000;stroke-width:1.5;" width="579.489" x="10" y="253.892"/><text fill="#000000" font-family="sans-serif" font-size="13" font-weight="bold" lengthAdjust="spacing" textLength="28.704" x="25" y="268.789">loop</text><text fill="#000000" font-family="sans-serif" font-size="11" font-weight="bold" lengthAdjust="spacing" textLength="89.0939" x="98.704" y="267.6509">[Every 1 second]</text><g class="message" data-participant-1="App" data-participant-2="Gateway"><polygon fill="#181818" points="358.6951,293.304,368.6951,297.304,358.6951,301.304,362.6951,297.304" style="stroke:#181818;stroke-width:1;"/><line style="stroke:#181818;stroke-width:1;" x1="210.247" x2="364.6951" y1="297.304" y2="297.304"/><text fill="#000000" font-family="sans-serif" font-size="13" lengthAdjust="spacing" textLength="113.2301" x="217.247" y="291.495">Send location data</text></g><g class="message" data-participant-1="Gateway" data-participant-2="Vehicles"><polygon fill="#181818" points="512.7632,342.716,522.7632,346.716,512.7632,350.716,516.7632,346.716" style="stroke:#181818;stroke-width:1;"/><line style="stroke:#181818;stroke-width:1;" x1="380.6951" x2="518.7632" y1="346.716" y2="346.716"/><text fill="#000000" font-family="sans-serif" font-size="13" lengthAdjust="spacing" textLength="113.5031" x="387.6951" y="323.201">Broadcast location</text><text fill="#000000" font-family="sans-serif" font-size="13" lengthAdjust="spacing" textLength="120.0681" x="387.6951" y="340.907">(LoRa transmission)</text></g><g class="message" data-participant-1="Vehicles" data-participant-2="Gateway"><polygon fill="#181818" points="391.6951,392.1281,381.6951,396.1281,391.6951,400.1281,387.6951,396.1281" style="stroke:#181818;stroke-width:1;"/><line style="stroke:#181818;stroke-width:1;" x1="385.6951" x2="523.7632" y1="396.1281" y2="396.1281"/><text fill="#000000" font-family="sans-serif" font-size="13" lengthAdjust="spacing" textLength="113.2301" x="397.6951" y="372.6131">Send location data</text><text fill="#000000" font-family="sans-serif" font-size="13" lengthAdjust="spacing" textLength="99.4501" x="397.6951" y="390.3191">(LoRa reception)</text></g><g class="message" data-participant-1="Gateway" data-participant-2="App"><polygon fill="#181818" points="221.247,423.8341,211.247,427.8341,221.247,431.8341,217.247,427.8341" style="stroke:#181818;stroke-width:1;"/><line style="stroke:#181818;stroke-width:1;" x1="215.247" x2="369.6951" y1="427.8341" y2="427.8341"/><text fill="#000000" font-family="sans-serif" font-size="13" lengthAdjust="spacing" textLength="136.4481" x="227.247" y="422.0251">Forward received data</text></g><g class="message" data-participant-1="App" data-participant-2="App"><line style="stroke:#181818;stroke-width:1;" x1="210.247" x2="252.247" y1="459.5401" y2="459.5401"/><line style="stroke:#181818;stroke-width:1;" x1="252.247" x2="252.247" y1="459.5401" y2="472.5401"/><line style="stroke:#181818;stroke-width:1;" x1="211.247" x2="252.247" y1="472.5401" y2="472.5401"/><polygon fill="#181818" points="221.247,468.5401,211.247,472.5401,221.247,476.5401,217.247,472.5401" style="stroke:#181818;stroke-width:1;"/><text fill="#000000" font-family="sans-serif" font-size="13" lengthAdjust="spacing" textLength="123.4091" x="217.247" y="453.7311">Process vehicle data</text></g><path d="M20,487.5401 L81.5588,487.5401 L81.5588,497.2461 L71.5588,507.2461 L20,507.2461 L20,487.5401" fill="#EEEEEE" style="stroke:#000000;stroke-width:1.5;"/><rect fill="none" height="51.412" style="stroke:#000000;stroke-width:1.5;" width="239.5989" x="20" y="487.5401"/><text fill="#000000" font-family="sans-serif" font-size="13" font-weight="bold" lengthAdjust="spacing" textLength="16.5588" x="35" y="502.4371">alt</text><text fill="#000000" font-family="sans-serif" font-size="11" font-weight="bold" lengthAdjust="spacing" textLength="148.6338" x="96.5588" y="501.299">[Potential hazard detected]</text><g class="message" data-participant-1="App" data-participant-2="Driver"><polygon fill="#181818" points="64.2019,526.9521,54.2019,530.9521,64.2019,534.9521,60.2019,530.9521" style="stroke:#181818;stroke-width:1;"/><line style="stroke:#181818;stroke-width:1;" x1="58.2019" x2="199.247" y1="530.9521" y2="530.9521"/><text fill="#000000" font-family="sans-serif" font-size="13" lengthAdjust="spacing" textLength="123.0451" x="70.2019" y="525.1431">Generate voice alert</text></g><g class="message" data-participant-1="Driver" data-participant-2="App"><polygon fill="#181818" points="188.247,572.6582,198.247,576.6582,188.247,580.6582,192.247,576.6582" style="stroke:#181818;stroke-width:1;"/><line style="stroke:#181818;stroke-width:1;" x1="53.2019" x2="194.247" y1="576.6582" y2="576.6582"/><text fill="#000000" font-family="sans-serif" font-size="13" lengthAdjust="spacing" textLength="93.0021" x="60.2019" y="570.8492">Exit application</text></g><g class="message" data-participant-1="App" data-participant-2="Gateway"><polygon fill="#181818" points="363.6951,604.3642,373.6951,608.3642,363.6951,612.3642,367.6951,608.3642" style="stroke:#181818;stroke-width:1;"/><line style="stroke:#181818;stroke-width:1;" x1="205.247" x2="369.6951" y1="608.3642" y2="608.3642"/><text fill="#000000" font-family="sans-serif" font-size="13" lengthAdjust="spacing" textLength="67.5091" x="212.247" y="602.5552">Disconnect</text></g><!--SRC=[XP8zRnin38Pt_GeYKpjqwEgXG9kaGG4NDHgWKnT6Od94TAGWqNQJNr_gVEVOxb3WFiM7vAkNQiyi1IkEy83n-QdgLjArPgsm7zWej6DyLD4uL1q9h6vF8st0f7kM9tZ4t2W4ZEO5RYhlg0PdZ2CN58Ehx_h0cU1pALU0hR_FuslzYN27HdjycOZv-vpwOGDL-4K3nqnjufQV40vjuSEdNdq5QznA701BoHpHMANBuvtNdTe7VtHuRhI2QnMXQ6_K8c4XfxBVX8qnywl7D_VkYBld3fmnQyK48nPWCQgF6DsQh5hWrWM-m4Te55LI0BZKS4-I8Ej1BoGqT6YETd3PxGg-L6yIiTaH_otl9XTTahIHM_ErzvxkrvBsdrvBXKgHYitf9zsdpNtLkiUQ9iWDJulAjzrCsAPgfDPWTsXzGc4ssAYHT1zXmDTUBP6vzzGzETOv37G5ToHK-q1sof4ydwevv_93loy7V_k7xMpiboRVS8lph1FzC-sJfNvC_W80]--></g></svg>