<svg xmlns="http://www.w3.org/2000/svg" xmlns:xlink="http://www.w3.org/1999/xlink" contentStyleType="text/css" data-diagram-type="DESCRIPTION" height="329px" preserveAspectRatio="none" style="width:1210px;height:329px;background:#FFFFFF;" version="1.1" viewBox="0 0 1210 329" width="1210px" zoomAndPan="magnify"><defs/><g><!--cluster EchoGhat Road Safety System--><g class="cluster" data-entity="EchoGhat Road Safety System" data-source-line="10" data-uid="ent0004" id="cluster_EchoGhat Road Safety System"><rect fill="none" height="95.65" rx="2.5" ry="2.5" style="stroke:#181818;stroke-width:1;" width="1197" x="7" y="106.57"/><text fill="#000000" font-family="sans-serif" font-size="14" font-weight="bold" lengthAdjust="spacing" textLength="206.4572" x="502.2714" y="123.5359">EchoGhat Road Safety System</text></g><g class="entity" data-entity="UC1" data-source-line="11" data-uid="ent0005" id="entity_UC1"><ellipse cx="102.9971" cy="165.3994" fill="#FFFFFF" rx="80.4471" ry="18.4894" style="stroke:#000000;stroke-width:0.5;"/><text fill="#000000" font-family="sans-serif" font-size="14" lengthAdjust="spacing" textLength="104.6916" x="47.6514" y="170.1324">Register Vehicle</text></g><g class="entity" data-entity="UC2" data-source-line="12" data-uid="ent0006" id="entity_UC2"><ellipse cx="277.0011" cy="165.4048" fill="#FFFFFF" rx="58.3711" ry="16.9448" style="stroke:#000000;stroke-width:0.5;"/><text fill="#000000" font-family="sans-serif" font-size="14" lengthAdjust="spacing" textLength="63.7137" x="242.1442" y="170.1378">View Map</text></g><g class="entity" data-entity="UC3" data-source-line="13" data-uid="ent0007" id="entity_UC3"><ellipse cx="463.0037" cy="165.3967" fill="#FFFFFF" rx="92.1337" ry="20.8267" style="stroke:#000000;stroke-width:0.5;"/><text fill="#000000" font-family="sans-serif" font-size="14" lengthAdjust="spacing" textLength="135.5615" x="392.223" y="170.1297">Receive Safety Alerts</text></g><g class="entity" data-entity="UC4" data-source-line="14" data-uid="ent0008" id="entity_UC4"><ellipse cx="682.005" cy="165.399" fill="#FFFFFF" rx="91.795" ry="20.759" style="stroke:#000000;stroke-width:0.5;"/><text fill="#000000" font-family="sans-serif" font-size="14" lengthAdjust="spacing" textLength="134.7075" x="611.6513" y="170.132">Track Other Vehicles</text></g><g class="entity" data-entity="UC5" data-source-line="15" data-uid="ent0009" id="entity_UC5"><ellipse cx="896.005" cy="165.399" fill="#FFFFFF" rx="86.945" ry="19.789" style="stroke:#000000;stroke-width:0.5;"/><text fill="#000000" font-family="sans-serif" font-size="14" lengthAdjust="spacing" textLength="122.2475" x="831.8812" y="170.132">Configure Settings</text></g><g class="entity" data-entity="UC6" data-source-line="16" data-uid="ent0010" id="entity_UC6"><ellipse cx="1102.9967" cy="165.3993" fill="#FFFFFF" rx="85.3467" ry="19.4693" style="stroke:#000000;stroke-width:0.5;"/><text fill="#000000" font-family="sans-serif" font-size="14" lengthAdjust="spacing" textLength="118.0335" x="1040.98" y="170.1323">Save Offline Maps</text></g><!--entity driver--><g class="entity" data-entity="driver" data-source-line="7" data-uid="ent0002" id="entity_driver"><ellipse cx="572.0019" cy="14" fill="#F1F1F1" rx="8" ry="8" style="stroke:#181818;stroke-width:0.5;"/><path d="M572.0019,22 L572.0019,49 M559.0019,30 L585.0019,30 M572.0019,49 L559.0019,64 M572.0019,49 L585.0019,64" fill="none" style="stroke:#181818;stroke-width:0.5;"/><text fill="#000000" font-family="sans-serif" font-size="14" lengthAdjust="spacing" textLength="40.4038" x="551.8" y="80.4659">Driver</text></g><!--entity system--><g class="entity" data-entity="system" data-source-line="8" data-uid="ent0003" id="entity_system"><ellipse cx="571.9959" cy="254.72" fill="#F1F1F1" rx="8" ry="8" style="stroke:#181818;stroke-width:0.5;"/><path d="M571.9959,262.72 L571.9959,289.72 M558.9959,270.72 L584.9959,270.72 M571.9959,289.72 L558.9959,304.72 M571.9959,289.72 L584.9959,304.72" fill="none" style="stroke:#181818;stroke-width:0.5;"/><text fill="#000000" font-family="sans-serif" font-size="14" lengthAdjust="spacing" textLength="47.5718" x="548.21" y="321.1859">System</text></g><!--link driver to UC1--><g class="link" data-entity-1="driver" data-entity-2="UC1" data-source-line="19" data-uid="lnk11" id="link_driver_UC1"><path d="M551.5,45.77 C494.09,45.7 327.65,50.02 201,98.57 C171.34,109.94 146.314,127.8708 127.514,143.2508" fill="none" id="driver-to-UC1" style="stroke:#181818;stroke-width:1;"/><polygon fill="#181818" points="122.87,147.05,132.3687,144.4472,126.74,143.884,127.3032,138.2553,122.87,147.05" style="stroke:#181818;stroke-width:1;"/></g><!--link driver to UC2--><g class="link" data-entity-1="driver" data-entity-2="UC2" data-source-line="20" data-uid="lnk12" id="link_driver_UC2"><path d="M551.56,47.69 C511.45,51.61 420.47,63.9 353,98.57 C328.31,111.25 309.0711,129.1904 294.9311,144.2904" fill="none" id="driver-to-UC2" style="stroke:#181818;stroke-width:1;"/><polygon fill="#181818" points="290.83,148.67,299.9014,144.8347,294.2476,145.0204,294.062,139.3665,290.83,148.67" style="stroke:#181818;stroke-width:1;"/></g><!--link driver to UC3--><g class="link" data-entity-1="driver" data-entity-2="UC3" data-source-line="21" data-uid="lnk13" id="link_driver_UC3"><path d="M551.5,68.3 C531.27,90.26 504.7041,119.106 485.3041,140.176" fill="none" id="driver-to-UC3" style="stroke:#181818;stroke-width:1;"/><polygon fill="#181818" points="481.24,144.59,490.2788,140.6785,484.6268,140.9117,484.3935,135.2597,481.24,144.59" style="stroke:#181818;stroke-width:1;"/></g><!--link driver to UC4--><g class="link" data-entity-1="driver" data-entity-2="UC4" data-source-line="22" data-uid="lnk14" id="link_driver_UC4"><path d="M592.69,68.3 C613.1,90.26 639.9245,119.1258 659.5145,140.1958" fill="none" id="driver-to-UC4" style="stroke:#181818;stroke-width:1;"/><polygon fill="#181818" points="663.6,144.59,660.4012,135.2751,660.1954,140.9282,654.5423,140.7224,663.6,144.59" style="stroke:#181818;stroke-width:1;"/></g><!--link driver to UC5--><g class="link" data-entity-1="driver" data-entity-2="UC5" data-source-line="23" data-uid="lnk15" id="link_driver_UC5"><path d="M592.62,48.7 C632.28,54.32 721.43,69.34 791,98.57 C820.56,110.98 846.4111,127.7437 866.9211,142.5137" fill="none" id="driver-to-UC5" style="stroke:#181818;stroke-width:1;"/><polygon fill="#181818" points="871.79,146.02,866.8242,137.5147,867.7326,143.0981,862.1492,144.0065,871.79,146.02" style="stroke:#181818;stroke-width:1;"/></g><!--link driver to UC6--><g class="link" data-entity-1="driver" data-entity-2="UC6" data-source-line="24" data-uid="lnk16" id="link_driver_UC6"><path d="M592.35,45.39 C655.15,44.07 850.66,44.83 1000,98.57 C1030.55,109.56 1056.6405,127.2507 1076.4905,142.6607" fill="none" id="driver-to-UC6" style="stroke:#181818;stroke-width:1;"/><polygon fill="#181818" points="1081.23,146.34,1076.5737,137.6613,1077.2805,143.2739,1071.6679,143.9806,1081.23,146.34" style="stroke:#181818;stroke-width:1;"/></g><!--reverse link UC1 to system--><g class="link" data-entity-1="UC1" data-entity-2="system" data-source-line="26" data-uid="lnk17" id="link_UC1_system"><path d="M139.9154,185.2748 C158.7854,194.4548 178.1,202.9 201,210.22 C328.66,251.03 488.45,274.13 548.1,281.83" fill="none" id="UC1-backto-system" style="stroke:#181818;stroke-width:1;"/><polygon fill="#181818" points="134.52,182.65,140.8633,190.1841,139.0162,184.8373,144.363,182.9903,134.52,182.65" style="stroke:#181818;stroke-width:1;"/></g><!--reverse link UC2 to system--><g class="link" data-entity-1="UC2" data-entity-2="system" data-source-line="27" data-uid="lnk18" id="link_UC2_system"><path d="M305.1027,184.3863 C319.8627,193.5163 334.55,201.86 353,210.22 C421.41,241.23 506.73,266.71 547.76,278.19" fill="none" id="UC2-backto-system" style="stroke:#181818;stroke-width:1;"/><polygon fill="#181818" points="300,181.23,305.5498,189.3663,304.2522,183.8603,309.7583,182.5627,300,181.23" style="stroke:#181818;stroke-width:1;"/></g><!--reverse link UC3 to system--><g class="link" data-entity-1="UC3" data-entity-2="system" data-source-line="28" data-uid="lnk19" id="link_UC3_system"><path d="M485.3059,190.6223 C503.6159,210.4923 527.83,236.8 547.96,258.65" fill="none" id="UC3-backto-system" style="stroke:#181818;stroke-width:1;"/><polygon fill="#181818" points="481.24,186.21,484.3973,195.5391,484.6282,189.8869,490.2804,190.1179,481.24,186.21" style="stroke:#181818;stroke-width:1;"/></g><!--reverse link UC4 to system--><g class="link" data-entity-1="UC4" data-entity-2="system" data-source-line="29" data-uid="lnk20" id="link_UC4_system"><path d="M659.505,190.6046 C641.035,210.4746 616.57,236.8 596.26,258.65" fill="none" id="UC4-backto-system" style="stroke:#181818;stroke-width:1;"/><polygon fill="#181818" points="663.59,186.21,654.5327,190.0786,660.1858,189.8722,660.3923,195.5253,663.59,186.21" style="stroke:#181818;stroke-width:1;"/></g><!--reverse link UC5 to system--><g class="link" data-entity-1="UC5" data-entity-2="system" data-source-line="30" data-uid="lnk21" id="link_UC5_system"><path d="M851.3414,185.8247 C831.7014,194.2047 812.99,201.9 791,210.22 C720.94,236.73 636.73,264.17 596.17,277.12" fill="none" id="UC5-backto-system" style="stroke:#181818;stroke-width:1;"/><polygon fill="#181818" points="856.86,183.47,847.0122,183.3229,852.2611,185.4322,850.1518,190.6811,856.86,183.47" style="stroke:#181818;stroke-width:1;"/></g><!--reverse link UC6 to system--><g class="link" data-entity-1="UC6" data-entity-2="system" data-source-line="31" data-uid="lnk22" id="link_UC6_system"><path d="M1063.0161,185.9726 C1043.3561,195.0826 1023.48,203.28 1000,210.22 C849.91,254.58 661.94,276 596.1,282.52" fill="none" id="UC6-backto-system" style="stroke:#181818;stroke-width:1;"/><polygon fill="#181818" points="1068.46,183.45,1058.6124,183.6046,1063.9234,185.5522,1061.9758,190.8632,1068.46,183.45" style="stroke:#181818;stroke-width:1;"/></g><!--SRC=[XP31JiCm38RlUGghznxOkfqG4co84vgqmUvUwZRHqcHoKgO9yUw4Re7an2rV_izsOd_KzeIC0nnG7djsesrNpZY6izA1XF_D1sUTLEm6Wi1ZddY5hJjhsqE7nkV9w4cYfwT_MYVDSKjyLGucrWY1CaIergm_Y2j03-rqJC7kuWCDK-2den1CCg3j3K7rB9LxKHXWwx257NOKBf1AFWMamL1jgTVncc5FIaj3KyVtrLtkx3MTuHLFjsnMrakAxqep7Wrny3Tndejl7Fy5cw3-PYMloRsLivtkHuujAOIussGjSck7SUQcwuoszFEq92t5bn3NJK5TFqm_AN1Muhp4fiH5YKiXOZ-uh-kqyzYln7c9JOcB4fSvVWC0]--></g></svg>